%TF.GenerationSoftware,KiCad,Pcbnew,9.0.6*%
%TF.CreationDate,2026-04-08T21:58:43+10:00*%
%TF.ProjectId,half-swept,68616c66-2d73-4776-9570-742e6b696361,rev?*%
%TF.SameCoordinates,Original*%
%TF.FileFunction,Soldermask,Top*%
%TF.FilePolarity,Negative*%
%FSLAX46Y46*%
G04 Gerber Fmt 4.6, Leading zero omitted, Abs format (unit mm)*
G04 Created by KiCad (PCBNEW 9.0.6) date 2026-04-08 21:58:43*
%MOMM*%
%LPD*%
G01*
G04 APERTURE LIST*
G04 Aperture macros list*
%AMFreePoly0*
4,1,6,0.600000,-0.250000,-0.600000,-0.250000,-0.600000,1.000000,0.000000,0.400000,0.600000,1.000000,0.600000,-0.250000,0.600000,-0.250000,$1*%
%AMFreePoly1*
4,1,6,0.600000,0.200000,0.000000,-0.400000,-0.600000,0.200000,-0.600000,0.400000,0.600000,0.400000,0.600000,0.200000,0.600000,0.200000,$1*%
G04 Aperture macros list end*
%ADD10C,0.250000*%
%ADD11C,0.100000*%
%ADD12R,0.900000X1.700000*%
%ADD13FreePoly0,90.000000*%
%ADD14FreePoly0,270.000000*%
%ADD15FreePoly1,90.000000*%
%ADD16R,1.600000X1.600000*%
%ADD17C,1.600000*%
%ADD18FreePoly1,270.000000*%
%ADD19C,1.512000*%
%ADD20C,2.304000*%
%ADD21C,1.397000*%
%ADD22C,1.701800*%
%ADD23C,0.990600*%
%ADD24C,3.429000*%
%ADD25C,2.262000*%
G04 APERTURE END LIST*
D10*
%TO.C,U1*%
X117835000Y-49022000D02*
G75*
G02*
X117585000Y-49022000I-125000J0D01*
G01*
X117585000Y-49022000D02*
G75*
G02*
X117835000Y-49022000I125000J0D01*
G01*
X117835000Y-51562000D02*
G75*
G02*
X117585000Y-51562000I-125000J0D01*
G01*
X117585000Y-51562000D02*
G75*
G02*
X117835000Y-51562000I125000J0D01*
G01*
X117835000Y-54102000D02*
G75*
G02*
X117585000Y-54102000I-125000J0D01*
G01*
X117585000Y-54102000D02*
G75*
G02*
X117835000Y-54102000I125000J0D01*
G01*
X117835000Y-56642000D02*
G75*
G02*
X117585000Y-56642000I-125000J0D01*
G01*
X117585000Y-56642000D02*
G75*
G02*
X117835000Y-56642000I125000J0D01*
G01*
X117835000Y-59182000D02*
G75*
G02*
X117585000Y-59182000I-125000J0D01*
G01*
X117585000Y-59182000D02*
G75*
G02*
X117835000Y-59182000I125000J0D01*
G01*
X117835000Y-61722000D02*
G75*
G02*
X117585000Y-61722000I-125000J0D01*
G01*
X117585000Y-61722000D02*
G75*
G02*
X117835000Y-61722000I125000J0D01*
G01*
X117835000Y-64262000D02*
G75*
G02*
X117585000Y-64262000I-125000J0D01*
G01*
X117585000Y-64262000D02*
G75*
G02*
X117835000Y-64262000I125000J0D01*
G01*
X117835000Y-66802000D02*
G75*
G02*
X117585000Y-66802000I-125000J0D01*
G01*
X117585000Y-66802000D02*
G75*
G02*
X117835000Y-66802000I125000J0D01*
G01*
X117835000Y-69342000D02*
G75*
G02*
X117585000Y-69342000I-125000J0D01*
G01*
X117585000Y-69342000D02*
G75*
G02*
X117835000Y-69342000I125000J0D01*
G01*
X117835000Y-71882000D02*
G75*
G02*
X117585000Y-71882000I-125000J0D01*
G01*
X117585000Y-71882000D02*
G75*
G02*
X117835000Y-71882000I125000J0D01*
G01*
X117835000Y-74422000D02*
G75*
G02*
X117585000Y-74422000I-125000J0D01*
G01*
X117585000Y-74422000D02*
G75*
G02*
X117835000Y-74422000I125000J0D01*
G01*
X117835000Y-76962000D02*
G75*
G02*
X117585000Y-76962000I-125000J0D01*
G01*
X117585000Y-76962000D02*
G75*
G02*
X117835000Y-76962000I125000J0D01*
G01*
X119359000Y-49022000D02*
G75*
G02*
X119109000Y-49022000I-125000J0D01*
G01*
X119109000Y-49022000D02*
G75*
G02*
X119359000Y-49022000I125000J0D01*
G01*
X119359000Y-51562000D02*
G75*
G02*
X119109000Y-51562000I-125000J0D01*
G01*
X119109000Y-51562000D02*
G75*
G02*
X119359000Y-51562000I125000J0D01*
G01*
X119359000Y-54102000D02*
G75*
G02*
X119109000Y-54102000I-125000J0D01*
G01*
X119109000Y-54102000D02*
G75*
G02*
X119359000Y-54102000I125000J0D01*
G01*
X119359000Y-56642000D02*
G75*
G02*
X119109000Y-56642000I-125000J0D01*
G01*
X119109000Y-56642000D02*
G75*
G02*
X119359000Y-56642000I125000J0D01*
G01*
X119359000Y-59182000D02*
G75*
G02*
X119109000Y-59182000I-125000J0D01*
G01*
X119109000Y-59182000D02*
G75*
G02*
X119359000Y-59182000I125000J0D01*
G01*
X119359000Y-61722000D02*
G75*
G02*
X119109000Y-61722000I-125000J0D01*
G01*
X119109000Y-61722000D02*
G75*
G02*
X119359000Y-61722000I125000J0D01*
G01*
X119359000Y-64262000D02*
G75*
G02*
X119109000Y-64262000I-125000J0D01*
G01*
X119109000Y-64262000D02*
G75*
G02*
X119359000Y-64262000I125000J0D01*
G01*
X119359000Y-66802000D02*
G75*
G02*
X119109000Y-66802000I-125000J0D01*
G01*
X119109000Y-66802000D02*
G75*
G02*
X119359000Y-66802000I125000J0D01*
G01*
X119359000Y-69342000D02*
G75*
G02*
X119109000Y-69342000I-125000J0D01*
G01*
X119109000Y-69342000D02*
G75*
G02*
X119359000Y-69342000I125000J0D01*
G01*
X119359000Y-71882000D02*
G75*
G02*
X119109000Y-71882000I-125000J0D01*
G01*
X119109000Y-71882000D02*
G75*
G02*
X119359000Y-71882000I125000J0D01*
G01*
X119359000Y-74422000D02*
G75*
G02*
X119109000Y-74422000I-125000J0D01*
G01*
X119109000Y-74422000D02*
G75*
G02*
X119359000Y-74422000I125000J0D01*
G01*
X119359000Y-76962000D02*
G75*
G02*
X119109000Y-76962000I-125000J0D01*
G01*
X119109000Y-76962000D02*
G75*
G02*
X119359000Y-76962000I125000J0D01*
G01*
D11*
X113392000Y-49530000D02*
X112376000Y-49530000D01*
X112376000Y-48514000D01*
X113392000Y-48514000D01*
X113392000Y-49530000D01*
G36*
X113392000Y-49530000D02*
G01*
X112376000Y-49530000D01*
X112376000Y-48514000D01*
X113392000Y-48514000D01*
X113392000Y-49530000D01*
G37*
X113392000Y-52070000D02*
X112376000Y-52070000D01*
X112376000Y-51054000D01*
X113392000Y-51054000D01*
X113392000Y-52070000D01*
G36*
X113392000Y-52070000D02*
G01*
X112376000Y-52070000D01*
X112376000Y-51054000D01*
X113392000Y-51054000D01*
X113392000Y-52070000D01*
G37*
X113392000Y-54610000D02*
X112376000Y-54610000D01*
X112376000Y-53594000D01*
X113392000Y-53594000D01*
X113392000Y-54610000D01*
G36*
X113392000Y-54610000D02*
G01*
X112376000Y-54610000D01*
X112376000Y-53594000D01*
X113392000Y-53594000D01*
X113392000Y-54610000D01*
G37*
X113392000Y-57150000D02*
X112376000Y-57150000D01*
X112376000Y-56134000D01*
X113392000Y-56134000D01*
X113392000Y-57150000D01*
G36*
X113392000Y-57150000D02*
G01*
X112376000Y-57150000D01*
X112376000Y-56134000D01*
X113392000Y-56134000D01*
X113392000Y-57150000D01*
G37*
X113392000Y-59690000D02*
X112376000Y-59690000D01*
X112376000Y-58674000D01*
X113392000Y-58674000D01*
X113392000Y-59690000D01*
G36*
X113392000Y-59690000D02*
G01*
X112376000Y-59690000D01*
X112376000Y-58674000D01*
X113392000Y-58674000D01*
X113392000Y-59690000D01*
G37*
X113392000Y-62230000D02*
X112376000Y-62230000D01*
X112376000Y-61214000D01*
X113392000Y-61214000D01*
X113392000Y-62230000D01*
G36*
X113392000Y-62230000D02*
G01*
X112376000Y-62230000D01*
X112376000Y-61214000D01*
X113392000Y-61214000D01*
X113392000Y-62230000D01*
G37*
X113392000Y-64770000D02*
X112376000Y-64770000D01*
X112376000Y-63754000D01*
X113392000Y-63754000D01*
X113392000Y-64770000D01*
G36*
X113392000Y-64770000D02*
G01*
X112376000Y-64770000D01*
X112376000Y-63754000D01*
X113392000Y-63754000D01*
X113392000Y-64770000D01*
G37*
X113392000Y-67310000D02*
X112376000Y-67310000D01*
X112376000Y-66294000D01*
X113392000Y-66294000D01*
X113392000Y-67310000D01*
G36*
X113392000Y-67310000D02*
G01*
X112376000Y-67310000D01*
X112376000Y-66294000D01*
X113392000Y-66294000D01*
X113392000Y-67310000D01*
G37*
X113392000Y-69850000D02*
X112376000Y-69850000D01*
X112376000Y-68834000D01*
X113392000Y-68834000D01*
X113392000Y-69850000D01*
G36*
X113392000Y-69850000D02*
G01*
X112376000Y-69850000D01*
X112376000Y-68834000D01*
X113392000Y-68834000D01*
X113392000Y-69850000D01*
G37*
X113392000Y-72390000D02*
X112376000Y-72390000D01*
X112376000Y-71374000D01*
X113392000Y-71374000D01*
X113392000Y-72390000D01*
G36*
X113392000Y-72390000D02*
G01*
X112376000Y-72390000D01*
X112376000Y-71374000D01*
X113392000Y-71374000D01*
X113392000Y-72390000D01*
G37*
X113392000Y-74930000D02*
X112376000Y-74930000D01*
X112376000Y-73914000D01*
X113392000Y-73914000D01*
X113392000Y-74930000D01*
G36*
X113392000Y-74930000D02*
G01*
X112376000Y-74930000D01*
X112376000Y-73914000D01*
X113392000Y-73914000D01*
X113392000Y-74930000D01*
G37*
X113392000Y-77470000D02*
X112376000Y-77470000D01*
X112376000Y-76454000D01*
X113392000Y-76454000D01*
X113392000Y-77470000D01*
G36*
X113392000Y-77470000D02*
G01*
X112376000Y-77470000D01*
X112376000Y-76454000D01*
X113392000Y-76454000D01*
X113392000Y-77470000D01*
G37*
X124568000Y-49530000D02*
X123552000Y-49530000D01*
X123552000Y-48514000D01*
X124568000Y-48514000D01*
X124568000Y-49530000D01*
G36*
X124568000Y-49530000D02*
G01*
X123552000Y-49530000D01*
X123552000Y-48514000D01*
X124568000Y-48514000D01*
X124568000Y-49530000D01*
G37*
X124568000Y-52070000D02*
X123552000Y-52070000D01*
X123552000Y-51054000D01*
X124568000Y-51054000D01*
X124568000Y-52070000D01*
G36*
X124568000Y-52070000D02*
G01*
X123552000Y-52070000D01*
X123552000Y-51054000D01*
X124568000Y-51054000D01*
X124568000Y-52070000D01*
G37*
X124568000Y-54610000D02*
X123552000Y-54610000D01*
X123552000Y-53594000D01*
X124568000Y-53594000D01*
X124568000Y-54610000D01*
G36*
X124568000Y-54610000D02*
G01*
X123552000Y-54610000D01*
X123552000Y-53594000D01*
X124568000Y-53594000D01*
X124568000Y-54610000D01*
G37*
X124568000Y-57150000D02*
X123552000Y-57150000D01*
X123552000Y-56134000D01*
X124568000Y-56134000D01*
X124568000Y-57150000D01*
G36*
X124568000Y-57150000D02*
G01*
X123552000Y-57150000D01*
X123552000Y-56134000D01*
X124568000Y-56134000D01*
X124568000Y-57150000D01*
G37*
X124568000Y-59690000D02*
X123552000Y-59690000D01*
X123552000Y-58674000D01*
X124568000Y-58674000D01*
X124568000Y-59690000D01*
G36*
X124568000Y-59690000D02*
G01*
X123552000Y-59690000D01*
X123552000Y-58674000D01*
X124568000Y-58674000D01*
X124568000Y-59690000D01*
G37*
X124568000Y-62230000D02*
X123552000Y-62230000D01*
X123552000Y-61214000D01*
X124568000Y-61214000D01*
X124568000Y-62230000D01*
G36*
X124568000Y-62230000D02*
G01*
X123552000Y-62230000D01*
X123552000Y-61214000D01*
X124568000Y-61214000D01*
X124568000Y-62230000D01*
G37*
X124568000Y-64770000D02*
X123552000Y-64770000D01*
X123552000Y-63754000D01*
X124568000Y-63754000D01*
X124568000Y-64770000D01*
G36*
X124568000Y-64770000D02*
G01*
X123552000Y-64770000D01*
X123552000Y-63754000D01*
X124568000Y-63754000D01*
X124568000Y-64770000D01*
G37*
X124568000Y-67310000D02*
X123552000Y-67310000D01*
X123552000Y-66294000D01*
X124568000Y-66294000D01*
X124568000Y-67310000D01*
G36*
X124568000Y-67310000D02*
G01*
X123552000Y-67310000D01*
X123552000Y-66294000D01*
X124568000Y-66294000D01*
X124568000Y-67310000D01*
G37*
X124568000Y-69850000D02*
X123552000Y-69850000D01*
X123552000Y-68834000D01*
X124568000Y-68834000D01*
X124568000Y-69850000D01*
G36*
X124568000Y-69850000D02*
G01*
X123552000Y-69850000D01*
X123552000Y-68834000D01*
X124568000Y-68834000D01*
X124568000Y-69850000D01*
G37*
X124568000Y-72390000D02*
X123552000Y-72390000D01*
X123552000Y-71374000D01*
X124568000Y-71374000D01*
X124568000Y-72390000D01*
G36*
X124568000Y-72390000D02*
G01*
X123552000Y-72390000D01*
X123552000Y-71374000D01*
X124568000Y-71374000D01*
X124568000Y-72390000D01*
G37*
X124568000Y-74930000D02*
X123552000Y-74930000D01*
X123552000Y-73914000D01*
X124568000Y-73914000D01*
X124568000Y-74930000D01*
G36*
X124568000Y-74930000D02*
G01*
X123552000Y-74930000D01*
X123552000Y-73914000D01*
X124568000Y-73914000D01*
X124568000Y-74930000D01*
G37*
X124568000Y-77470000D02*
X123552000Y-77470000D01*
X123552000Y-76454000D01*
X124568000Y-76454000D01*
X124568000Y-77470000D01*
G36*
X124568000Y-77470000D02*
G01*
X123552000Y-77470000D01*
X123552000Y-76454000D01*
X124568000Y-76454000D01*
X124568000Y-77470000D01*
G37*
%TD*%
D12*
%TO.C,RSW4*%
X123700000Y-81400000D03*
X120300000Y-81400000D03*
%TD*%
D13*
%TO.C,U1*%
X113646000Y-49022000D03*
X113646000Y-51562000D03*
X113646000Y-54102000D03*
X113646000Y-56642000D03*
X113646000Y-59182000D03*
X113646000Y-61722000D03*
X113646000Y-64262000D03*
X113646000Y-66802000D03*
X113646000Y-69342000D03*
X113646000Y-71882000D03*
X113646000Y-74422000D03*
X113646000Y-76962000D03*
D14*
X123298000Y-76962000D03*
X123298000Y-74422000D03*
X123298000Y-71882000D03*
X123298000Y-69342000D03*
X123298000Y-66802000D03*
X123298000Y-64262000D03*
X123298000Y-61722000D03*
X123298000Y-59182000D03*
X123298000Y-56642000D03*
X123298000Y-54102000D03*
X123298000Y-51562000D03*
X123298000Y-49022000D03*
D15*
X112630000Y-49022000D03*
D16*
X110852000Y-49022000D03*
D15*
X112630000Y-51562000D03*
D17*
X110852000Y-51562000D03*
D15*
X112630000Y-54102000D03*
D17*
X110852000Y-54102000D03*
D15*
X112630000Y-56642000D03*
D17*
X110852000Y-56642000D03*
D15*
X112630000Y-59182000D03*
D17*
X110852000Y-59182000D03*
D15*
X112630000Y-61722000D03*
D17*
X110852000Y-61722000D03*
D15*
X112630000Y-64262000D03*
D17*
X110852000Y-64262000D03*
D15*
X112630000Y-66802000D03*
D17*
X110852000Y-66802000D03*
D15*
X112630000Y-69342000D03*
D17*
X110852000Y-69342000D03*
D15*
X112630000Y-71882000D03*
D17*
X110852000Y-71882000D03*
D15*
X112630000Y-74422000D03*
D17*
X110852000Y-74422000D03*
D15*
X112630000Y-76962000D03*
D17*
X110852000Y-76962000D03*
X126092000Y-76962000D03*
D18*
X124314000Y-76962000D03*
D17*
X126092000Y-74422000D03*
D18*
X124314000Y-74422000D03*
D17*
X126092000Y-71882000D03*
D18*
X124314000Y-71882000D03*
D17*
X126092000Y-69342000D03*
D18*
X124314000Y-69342000D03*
D17*
X126092000Y-66802000D03*
D18*
X124314000Y-66802000D03*
D17*
X126092000Y-64262000D03*
D18*
X124314000Y-64262000D03*
D17*
X126092000Y-61722000D03*
D18*
X124314000Y-61722000D03*
D17*
X126092000Y-59182000D03*
D18*
X124314000Y-59182000D03*
D17*
X126092000Y-56642000D03*
D18*
X124314000Y-56642000D03*
D17*
X126092000Y-54102000D03*
D18*
X124314000Y-54102000D03*
D17*
X126092000Y-51562000D03*
D18*
X124314000Y-51562000D03*
D16*
X126092000Y-49022000D03*
D18*
X124314000Y-49022000D03*
%TD*%
D19*
%TO.C,SW_POWER1*%
X43500000Y-81300000D03*
X47500000Y-81300000D03*
X45500000Y-81300000D03*
D20*
X41350000Y-81300000D03*
X49650000Y-81300000D03*
%TD*%
D21*
%TO.C,B+*%
X124600000Y-46000000D03*
%TD*%
%TO.C,B-*%
X112500000Y-45800000D03*
%TD*%
D22*
%TO.C,SW2*%
X21580000Y-46080000D03*
D23*
X21860000Y-41880000D03*
D24*
X27080000Y-46080000D03*
D23*
X32300000Y-41880000D03*
D22*
X32580000Y-46080000D03*
D25*
X27080000Y-51980000D03*
X22080000Y-49880000D03*
X32080000Y-49880000D03*
%TD*%
D22*
%TO.C,SW3*%
X39580000Y-34080000D03*
D23*
X39860000Y-29880000D03*
D24*
X45080000Y-34080000D03*
D23*
X50300000Y-29880000D03*
D22*
X50580000Y-34080000D03*
D25*
X45080000Y-39980000D03*
X40080000Y-37880000D03*
X50080000Y-37880000D03*
%TD*%
D22*
%TO.C,SW4*%
X57580000Y-27080000D03*
D23*
X57860000Y-22880000D03*
D24*
X63080000Y-27080000D03*
D23*
X68300000Y-22880000D03*
D22*
X68580000Y-27080000D03*
D25*
X63080000Y-32980000D03*
X58080000Y-30880000D03*
X68080000Y-30880000D03*
%TD*%
D22*
%TO.C,SW5*%
X75580000Y-32580000D03*
D23*
X75860000Y-28380000D03*
D24*
X81080000Y-32580000D03*
D23*
X86300000Y-28380000D03*
D22*
X86580000Y-32580000D03*
D25*
X81080000Y-38480000D03*
X76080000Y-36380000D03*
X86080000Y-36380000D03*
%TD*%
D22*
%TO.C,SW6*%
X93580000Y-35080000D03*
D23*
X93860000Y-30880000D03*
D24*
X99080000Y-35080000D03*
D23*
X104300000Y-30880000D03*
D22*
X104580000Y-35080000D03*
D25*
X99080000Y-40980000D03*
X94080000Y-38880000D03*
X104080000Y-38880000D03*
%TD*%
D22*
%TO.C,SW8*%
X21580000Y-63080000D03*
D23*
X21860000Y-58880000D03*
D24*
X27080000Y-63080000D03*
D23*
X32300000Y-58880000D03*
D22*
X32580000Y-63080000D03*
D25*
X27080000Y-68980000D03*
X22080000Y-66880000D03*
X32080000Y-66880000D03*
%TD*%
D22*
%TO.C,SW9*%
X39580000Y-51054000D03*
D23*
X39860000Y-46854000D03*
D24*
X45080000Y-51054000D03*
D23*
X50300000Y-46854000D03*
D22*
X50580000Y-51054000D03*
D25*
X45080000Y-56954000D03*
X40080000Y-54854000D03*
X50080000Y-54854000D03*
%TD*%
D22*
%TO.C,SW10*%
X57580000Y-44196000D03*
D23*
X57860000Y-39996000D03*
D24*
X63080000Y-44196000D03*
D23*
X68300000Y-39996000D03*
D22*
X68580000Y-44196000D03*
D25*
X63080000Y-50096000D03*
X58080000Y-47996000D03*
X68080000Y-47996000D03*
%TD*%
D22*
%TO.C,SW11*%
X75580000Y-49530000D03*
D23*
X75860000Y-45330000D03*
D24*
X81080000Y-49530000D03*
D23*
X86300000Y-45330000D03*
D22*
X86580000Y-49530000D03*
D25*
X81080000Y-55430000D03*
X76080000Y-53330000D03*
X86080000Y-53330000D03*
%TD*%
D22*
%TO.C,SW12*%
X93560000Y-52070000D03*
D23*
X93840000Y-47870000D03*
D24*
X99060000Y-52070000D03*
D23*
X104280000Y-47870000D03*
D22*
X104560000Y-52070000D03*
D25*
X99060000Y-57970000D03*
X94060000Y-55870000D03*
X104060000Y-55870000D03*
%TD*%
D22*
%TO.C,SW14*%
X21580000Y-80080000D03*
D23*
X21860000Y-75880000D03*
D24*
X27080000Y-80080000D03*
D23*
X32300000Y-75880000D03*
D22*
X32580000Y-80080000D03*
D25*
X27080000Y-85980000D03*
X22080000Y-83880000D03*
X32080000Y-83880000D03*
%TD*%
D22*
%TO.C,SW15*%
X39580000Y-68072000D03*
D23*
X39860000Y-63872000D03*
D24*
X45080000Y-68072000D03*
D23*
X50300000Y-63872000D03*
D22*
X50580000Y-68072000D03*
D25*
X45080000Y-73972000D03*
X40080000Y-71872000D03*
X50080000Y-71872000D03*
%TD*%
D22*
%TO.C,SW16*%
X57580000Y-61214000D03*
D23*
X57860000Y-57014000D03*
D24*
X63080000Y-61214000D03*
D23*
X68300000Y-57014000D03*
D22*
X68580000Y-61214000D03*
D25*
X63080000Y-67114000D03*
X58080000Y-65014000D03*
X68080000Y-65014000D03*
%TD*%
D22*
%TO.C,SW17*%
X75580000Y-66548000D03*
D23*
X75860000Y-62348000D03*
D24*
X81080000Y-66548000D03*
D23*
X86300000Y-62348000D03*
D22*
X86580000Y-66548000D03*
D25*
X81080000Y-72448000D03*
X76080000Y-70348000D03*
X86080000Y-70348000D03*
%TD*%
D22*
%TO.C,SW18*%
X93560000Y-69088000D03*
D23*
X93840000Y-64888000D03*
D24*
X99060000Y-69088000D03*
D23*
X104280000Y-64888000D03*
D22*
X104560000Y-69088000D03*
D25*
X99060000Y-74988000D03*
X94060000Y-72888000D03*
X104060000Y-72888000D03*
%TD*%
D22*
%TO.C,SW20*%
X114119140Y-97530000D03*
D23*
X111776653Y-101027307D03*
D24*
X109356000Y-94780000D03*
D23*
X102735347Y-95807307D03*
D22*
X104592860Y-92030000D03*
D25*
X112306000Y-89670450D03*
X115586127Y-93989103D03*
X106925873Y-88989103D03*
%TD*%
D22*
%TO.C,SW21*%
X96108592Y-88453505D03*
D23*
X94751093Y-92437924D03*
D24*
X90796000Y-87030000D03*
D23*
X84666827Y-89735853D03*
D22*
X85483408Y-85606495D03*
D25*
X92323032Y-81331038D03*
X96609142Y-84653577D03*
X86949883Y-82065387D03*
%TD*%
D12*
%TO.C,RSW2*%
X114000000Y-81400000D03*
X117400000Y-81400000D03*
%TD*%
M02*
