M48
; DRILL file {KiCad 9.0.6} date 2026-04-08T21:58:46+1000
; FORMAT={-:-/ absolute / metric / decimal}
; #@! TF.CreationDate,2026-04-08T21:58:46+10:00
; #@! TF.GenerationSoftware,Kicad,Pcbnew,9.0.6
; #@! TF.FileFunction,Plated,1,2,PTH
FMAT,2
METRIC
; #@! TA.AperFunction,Plated,PTH,ViaDrill
T1C0.400
; #@! TA.AperFunction,Plated,PTH,ComponentDrill
T2C0.400
; #@! TA.AperFunction,Plated,PTH,ComponentDrill
T3C0.800
; #@! TA.AperFunction,Plated,PTH,ComponentDrill
T4C0.813
; #@! TA.AperFunction,Plated,PTH,ComponentDrill
T5C1.100
; #@! TA.AperFunction,Plated,PTH,ComponentDrill
T6C1.400
; #@! TA.AperFunction,Plated,PTH,ComponentDrill
T7C1.500
%
G90
G05
T1
X101.3Y-63.6
X103.0Y-62.4
X105.8Y-41.6
X105.895Y-58.9
X106.62Y-57.2
X106.9Y-70.8
X107.6Y-60.8
X107.6Y-65.6
X108.2Y-71.1
X109.422Y-57.175
X110.9Y-79.7
X114.764Y-52.273
X115.7Y-79.7
X120.3Y-79.6
T2
X117.71Y-49.022
X117.71Y-51.562
X117.71Y-54.102
X117.71Y-56.642
X117.71Y-59.182
X117.71Y-61.722
X117.71Y-64.262
X117.71Y-66.802
X117.71Y-69.342
X117.71Y-71.882
X117.71Y-74.422
X117.71Y-76.962
X119.234Y-49.022
X119.234Y-51.562
X119.234Y-54.102
X119.234Y-56.642
X119.234Y-59.182
X119.234Y-61.722
X119.234Y-64.262
X119.234Y-66.802
X119.234Y-69.342
X119.234Y-71.882
X119.234Y-74.422
X119.234Y-76.962
T3
X43.5Y-81.3
X45.5Y-81.3
X47.5Y-81.3
T4
X112.5Y-45.8
X124.6Y-46.0
T5
X110.852Y-49.022
X110.852Y-51.562
X110.852Y-54.102
X110.852Y-56.642
X110.852Y-59.182
X110.852Y-61.722
X110.852Y-64.262
X110.852Y-66.802
X110.852Y-69.342
X110.852Y-71.882
X110.852Y-74.422
X110.852Y-76.962
X126.092Y-49.022
X126.092Y-51.562
X126.092Y-54.102
X126.092Y-56.642
X126.092Y-59.182
X126.092Y-61.722
X126.092Y-64.262
X126.092Y-66.802
X126.092Y-69.342
X126.092Y-71.882
X126.092Y-74.422
X126.092Y-76.962
T6
X41.35Y-81.3
X49.65Y-81.3
T7
X22.08Y-49.88
X22.08Y-66.88
X22.08Y-83.88
X27.08Y-51.98
X27.08Y-68.98
X27.08Y-85.98
X32.08Y-49.88
X32.08Y-66.88
X32.08Y-83.88
X40.08Y-37.88
X40.08Y-54.854
X40.08Y-71.872
X45.08Y-39.98
X45.08Y-56.954
X45.08Y-73.972
X50.08Y-37.88
X50.08Y-54.854
X50.08Y-71.872
X58.08Y-30.88
X58.08Y-47.996
X58.08Y-65.014
X63.08Y-32.98
X63.08Y-50.096
X63.08Y-67.114
X68.08Y-30.88
X68.08Y-47.996
X68.08Y-65.014
X76.08Y-36.38
X76.08Y-53.33
X76.08Y-70.348
X81.08Y-38.48
X81.08Y-55.43
X81.08Y-72.448
X86.08Y-36.38
X86.08Y-53.33
X86.08Y-70.348
X86.95Y-82.065
X92.323Y-81.331
X94.06Y-55.87
X94.06Y-72.888
X94.08Y-38.88
X96.609Y-84.654
X99.06Y-57.97
X99.06Y-74.988
X99.08Y-40.98
X104.06Y-55.87
X104.06Y-72.888
X104.08Y-38.88
X106.926Y-88.989
X112.306Y-89.67
X115.586Y-93.989
M30
