%TF.GenerationSoftware,KiCad,Pcbnew,9.0.6*%
%TF.CreationDate,2026-04-08T21:58:43+10:00*%
%TF.ProjectId,half-swept,68616c66-2d73-4776-9570-742e6b696361,rev?*%
%TF.SameCoordinates,Original*%
%TF.FileFunction,Legend,Bot*%
%TF.FilePolarity,Positive*%
%FSLAX46Y46*%
G04 Gerber Fmt 4.6, Leading zero omitted, Abs format (unit mm)*
G04 Created by KiCad (PCBNEW 9.0.6) date 2026-04-08 21:58:43*
%MOMM*%
%LPD*%
G01*
G04 APERTURE LIST*
%ADD10C,0.150000*%
%ADD11C,0.120000*%
%ADD12C,0.160000*%
G04 APERTURE END LIST*
D10*
X48855831Y-80218972D02*
X48743345Y-80256467D01*
X48743345Y-80256467D02*
X48555869Y-80256467D01*
X48555869Y-80256467D02*
X48480878Y-80218972D01*
X48480878Y-80218972D02*
X48443383Y-80181476D01*
X48443383Y-80181476D02*
X48405887Y-80106486D01*
X48405887Y-80106486D02*
X48405887Y-80031495D01*
X48405887Y-80031495D02*
X48443383Y-79956504D01*
X48443383Y-79956504D02*
X48480878Y-79919009D01*
X48480878Y-79919009D02*
X48555869Y-79881514D01*
X48555869Y-79881514D02*
X48705850Y-79844018D01*
X48705850Y-79844018D02*
X48780841Y-79806523D01*
X48780841Y-79806523D02*
X48818336Y-79769028D01*
X48818336Y-79769028D02*
X48855831Y-79694037D01*
X48855831Y-79694037D02*
X48855831Y-79619046D01*
X48855831Y-79619046D02*
X48818336Y-79544056D01*
X48818336Y-79544056D02*
X48780841Y-79506560D01*
X48780841Y-79506560D02*
X48705850Y-79469065D01*
X48705850Y-79469065D02*
X48518373Y-79469065D01*
X48518373Y-79469065D02*
X48405887Y-79506560D01*
X48143420Y-79469065D02*
X47955943Y-80256467D01*
X47955943Y-80256467D02*
X47805962Y-79694037D01*
X47805962Y-79694037D02*
X47655980Y-80256467D01*
X47655980Y-80256467D02*
X47468504Y-79469065D01*
X47356018Y-80331458D02*
X46756092Y-80331458D01*
X46568616Y-80256467D02*
X46568616Y-79469065D01*
X46568616Y-79469065D02*
X46268653Y-79469065D01*
X46268653Y-79469065D02*
X46193663Y-79506560D01*
X46193663Y-79506560D02*
X46156167Y-79544056D01*
X46156167Y-79544056D02*
X46118672Y-79619046D01*
X46118672Y-79619046D02*
X46118672Y-79731532D01*
X46118672Y-79731532D02*
X46156167Y-79806523D01*
X46156167Y-79806523D02*
X46193663Y-79844018D01*
X46193663Y-79844018D02*
X46268653Y-79881514D01*
X46268653Y-79881514D02*
X46568616Y-79881514D01*
X45631233Y-79469065D02*
X45481251Y-79469065D01*
X45481251Y-79469065D02*
X45406261Y-79506560D01*
X45406261Y-79506560D02*
X45331270Y-79581551D01*
X45331270Y-79581551D02*
X45293775Y-79731532D01*
X45293775Y-79731532D02*
X45293775Y-79994000D01*
X45293775Y-79994000D02*
X45331270Y-80143981D01*
X45331270Y-80143981D02*
X45406261Y-80218972D01*
X45406261Y-80218972D02*
X45481251Y-80256467D01*
X45481251Y-80256467D02*
X45631233Y-80256467D01*
X45631233Y-80256467D02*
X45706223Y-80218972D01*
X45706223Y-80218972D02*
X45781214Y-80143981D01*
X45781214Y-80143981D02*
X45818709Y-79994000D01*
X45818709Y-79994000D02*
X45818709Y-79731532D01*
X45818709Y-79731532D02*
X45781214Y-79581551D01*
X45781214Y-79581551D02*
X45706223Y-79506560D01*
X45706223Y-79506560D02*
X45631233Y-79469065D01*
X45031308Y-79469065D02*
X44843831Y-80256467D01*
X44843831Y-80256467D02*
X44693850Y-79694037D01*
X44693850Y-79694037D02*
X44543868Y-80256467D01*
X44543868Y-80256467D02*
X44356392Y-79469065D01*
X44056429Y-79844018D02*
X43793962Y-79844018D01*
X43681476Y-80256467D02*
X44056429Y-80256467D01*
X44056429Y-80256467D02*
X44056429Y-79469065D01*
X44056429Y-79469065D02*
X43681476Y-79469065D01*
X42894074Y-80256467D02*
X43156541Y-79881514D01*
X43344018Y-80256467D02*
X43344018Y-79469065D01*
X43344018Y-79469065D02*
X43044055Y-79469065D01*
X43044055Y-79469065D02*
X42969065Y-79506560D01*
X42969065Y-79506560D02*
X42931569Y-79544056D01*
X42931569Y-79544056D02*
X42894074Y-79619046D01*
X42894074Y-79619046D02*
X42894074Y-79731532D01*
X42894074Y-79731532D02*
X42931569Y-79806523D01*
X42931569Y-79806523D02*
X42969065Y-79844018D01*
X42969065Y-79844018D02*
X43044055Y-79881514D01*
X43044055Y-79881514D02*
X43344018Y-79881514D01*
X42144167Y-80256467D02*
X42594111Y-80256467D01*
X42369139Y-80256467D02*
X42369139Y-79469065D01*
X42369139Y-79469065D02*
X42444130Y-79581551D01*
X42444130Y-79581551D02*
X42519121Y-79656542D01*
X42519121Y-79656542D02*
X42594111Y-79694037D01*
D11*
X41100000Y-79100000D02*
X49900000Y-79100000D01*
X49900000Y-83500000D01*
X41100000Y-83500000D01*
X41100000Y-79100000D01*
X41500000Y-83500000D02*
X49500000Y-83500000D01*
X49500000Y-85500000D01*
X41500000Y-85500000D01*
X41500000Y-83500000D01*
D12*
X48714284Y-84008037D02*
X48628570Y-84008037D01*
X48628570Y-84008037D02*
X48542856Y-84050894D01*
X48542856Y-84050894D02*
X48499999Y-84093751D01*
X48499999Y-84093751D02*
X48457141Y-84179465D01*
X48457141Y-84179465D02*
X48414284Y-84350894D01*
X48414284Y-84350894D02*
X48414284Y-84565180D01*
X48414284Y-84565180D02*
X48457141Y-84736608D01*
X48457141Y-84736608D02*
X48499999Y-84822322D01*
X48499999Y-84822322D02*
X48542856Y-84865180D01*
X48542856Y-84865180D02*
X48628570Y-84908037D01*
X48628570Y-84908037D02*
X48714284Y-84908037D01*
X48714284Y-84908037D02*
X48799999Y-84865180D01*
X48799999Y-84865180D02*
X48842856Y-84822322D01*
X48842856Y-84822322D02*
X48885713Y-84736608D01*
X48885713Y-84736608D02*
X48928570Y-84565180D01*
X48928570Y-84565180D02*
X48928570Y-84350894D01*
X48928570Y-84350894D02*
X48885713Y-84179465D01*
X48885713Y-84179465D02*
X48842856Y-84093751D01*
X48842856Y-84093751D02*
X48799999Y-84050894D01*
X48799999Y-84050894D02*
X48714284Y-84008037D01*
X42071429Y-84908037D02*
X42585715Y-84908037D01*
X42328572Y-84908037D02*
X42328572Y-84008037D01*
X42328572Y-84008037D02*
X42414286Y-84136608D01*
X42414286Y-84136608D02*
X42500001Y-84222322D01*
X42500001Y-84222322D02*
X42585715Y-84265180D01*
D11*
X115436308Y-49344131D02*
X115636308Y-49058417D01*
X115779165Y-49344131D02*
X115779165Y-48744131D01*
X115779165Y-48744131D02*
X115550594Y-48744131D01*
X115550594Y-48744131D02*
X115493451Y-48772702D01*
X115493451Y-48772702D02*
X115464880Y-48801274D01*
X115464880Y-48801274D02*
X115436308Y-48858417D01*
X115436308Y-48858417D02*
X115436308Y-48944131D01*
X115436308Y-48944131D02*
X115464880Y-49001274D01*
X115464880Y-49001274D02*
X115493451Y-49029845D01*
X115493451Y-49029845D02*
X115550594Y-49058417D01*
X115550594Y-49058417D02*
X115779165Y-49058417D01*
X115207737Y-49172702D02*
X114922023Y-49172702D01*
X115264880Y-49344131D02*
X115064880Y-48744131D01*
X115064880Y-48744131D02*
X114864880Y-49344131D01*
X114722022Y-48744131D02*
X114579165Y-49344131D01*
X114579165Y-49344131D02*
X114464879Y-48915560D01*
X114464879Y-48915560D02*
X114350594Y-49344131D01*
X114350594Y-49344131D02*
X114207737Y-48744131D01*
D10*
X114728570Y-45755485D02*
X114642856Y-45784057D01*
X114642856Y-45784057D02*
X114614285Y-45812628D01*
X114614285Y-45812628D02*
X114585713Y-45869771D01*
X114585713Y-45869771D02*
X114585713Y-45955485D01*
X114585713Y-45955485D02*
X114614285Y-46012628D01*
X114614285Y-46012628D02*
X114642856Y-46041200D01*
X114642856Y-46041200D02*
X114699999Y-46069771D01*
X114699999Y-46069771D02*
X114928570Y-46069771D01*
X114928570Y-46069771D02*
X114928570Y-45469771D01*
X114928570Y-45469771D02*
X114728570Y-45469771D01*
X114728570Y-45469771D02*
X114671428Y-45498342D01*
X114671428Y-45498342D02*
X114642856Y-45526914D01*
X114642856Y-45526914D02*
X114614285Y-45584057D01*
X114614285Y-45584057D02*
X114614285Y-45641200D01*
X114614285Y-45641200D02*
X114642856Y-45698342D01*
X114642856Y-45698342D02*
X114671428Y-45726914D01*
X114671428Y-45726914D02*
X114728570Y-45755485D01*
X114728570Y-45755485D02*
X114928570Y-45755485D01*
X114328570Y-45841200D02*
X113871428Y-45841200D01*
X120061885Y-54142703D02*
X120014266Y-54196274D01*
X120014266Y-54196274D02*
X119966647Y-54297464D01*
X119966647Y-54297464D02*
X119966647Y-54535560D01*
X119966647Y-54535560D02*
X120014266Y-54624845D01*
X120014266Y-54624845D02*
X120061885Y-54666512D01*
X120061885Y-54666512D02*
X120157123Y-54702226D01*
X120157123Y-54702226D02*
X120252361Y-54690322D01*
X120252361Y-54690322D02*
X120395218Y-54624845D01*
X120395218Y-54624845D02*
X120966647Y-53981988D01*
X120966647Y-53981988D02*
X120966647Y-54601036D01*
X121347599Y-54886750D02*
X121299980Y-54940322D01*
X121299980Y-54940322D02*
X121157123Y-55053417D01*
X121157123Y-55053417D02*
X121061885Y-55112941D01*
X121061885Y-55112941D02*
X120919028Y-55178417D01*
X120919028Y-55178417D02*
X120680932Y-55255798D01*
X120680932Y-55255798D02*
X120490456Y-55279607D01*
X120490456Y-55279607D02*
X120252361Y-55261750D01*
X120252361Y-55261750D02*
X120109504Y-55231988D01*
X120109504Y-55231988D02*
X120014266Y-55196274D01*
X120014266Y-55196274D02*
X119871408Y-55118893D01*
X119871408Y-55118893D02*
X119823789Y-55077226D01*
X120871408Y-57041513D02*
X120919028Y-56987941D01*
X120919028Y-56987941D02*
X120966647Y-56839132D01*
X120966647Y-56839132D02*
X120966647Y-56743894D01*
X120966647Y-56743894D02*
X120919028Y-56606989D01*
X120919028Y-56606989D02*
X120823789Y-56523656D01*
X120823789Y-56523656D02*
X120728551Y-56487941D01*
X120728551Y-56487941D02*
X120538075Y-56464132D01*
X120538075Y-56464132D02*
X120395218Y-56481989D01*
X120395218Y-56481989D02*
X120204742Y-56553417D01*
X120204742Y-56553417D02*
X120109504Y-56612941D01*
X120109504Y-56612941D02*
X120014266Y-56720084D01*
X120014266Y-56720084D02*
X119966647Y-56868894D01*
X119966647Y-56868894D02*
X119966647Y-56964132D01*
X119966647Y-56964132D02*
X120014266Y-57101037D01*
X120014266Y-57101037D02*
X120061885Y-57142703D01*
X120966647Y-57601037D02*
X120919028Y-57511751D01*
X120919028Y-57511751D02*
X120823789Y-57476037D01*
X120823789Y-57476037D02*
X119966647Y-57583179D01*
X120966647Y-58124847D02*
X120919028Y-58035561D01*
X120919028Y-58035561D02*
X120871408Y-57993894D01*
X120871408Y-57993894D02*
X120776170Y-57958180D01*
X120776170Y-57958180D02*
X120490456Y-57993894D01*
X120490456Y-57993894D02*
X120395218Y-58053418D01*
X120395218Y-58053418D02*
X120347599Y-58106989D01*
X120347599Y-58106989D02*
X120299980Y-58208180D01*
X120299980Y-58208180D02*
X120299980Y-58351037D01*
X120299980Y-58351037D02*
X120347599Y-58440323D01*
X120347599Y-58440323D02*
X120395218Y-58481989D01*
X120395218Y-58481989D02*
X120490456Y-58517704D01*
X120490456Y-58517704D02*
X120776170Y-58481989D01*
X120776170Y-58481989D02*
X120871408Y-58422466D01*
X120871408Y-58422466D02*
X120919028Y-58368894D01*
X120919028Y-58368894D02*
X120966647Y-58267704D01*
X120966647Y-58267704D02*
X120966647Y-58124847D01*
X120919028Y-58845085D02*
X120966647Y-58934370D01*
X120966647Y-58934370D02*
X120966647Y-59124847D01*
X120966647Y-59124847D02*
X120919028Y-59226037D01*
X120919028Y-59226037D02*
X120823789Y-59285561D01*
X120823789Y-59285561D02*
X120776170Y-59291513D01*
X120776170Y-59291513D02*
X120680932Y-59255799D01*
X120680932Y-59255799D02*
X120633313Y-59166513D01*
X120633313Y-59166513D02*
X120633313Y-59023656D01*
X120633313Y-59023656D02*
X120585694Y-58934370D01*
X120585694Y-58934370D02*
X120490456Y-58898656D01*
X120490456Y-58898656D02*
X120442837Y-58904609D01*
X120442837Y-58904609D02*
X120347599Y-58964132D01*
X120347599Y-58964132D02*
X120299980Y-59065323D01*
X120299980Y-59065323D02*
X120299980Y-59208180D01*
X120299980Y-59208180D02*
X120347599Y-59297466D01*
X120919028Y-60083180D02*
X120966647Y-59981990D01*
X120966647Y-59981990D02*
X120966647Y-59791513D01*
X120966647Y-59791513D02*
X120919028Y-59702228D01*
X120919028Y-59702228D02*
X120823789Y-59666513D01*
X120823789Y-59666513D02*
X120442837Y-59714133D01*
X120442837Y-59714133D02*
X120347599Y-59773656D01*
X120347599Y-59773656D02*
X120299980Y-59874847D01*
X120299980Y-59874847D02*
X120299980Y-60065323D01*
X120299980Y-60065323D02*
X120347599Y-60154609D01*
X120347599Y-60154609D02*
X120442837Y-60190323D01*
X120442837Y-60190323D02*
X120538075Y-60178418D01*
X120538075Y-60178418D02*
X120633313Y-59690323D01*
X119966647Y-61726038D02*
X120680932Y-61636752D01*
X120680932Y-61636752D02*
X120823789Y-61571276D01*
X120823789Y-61571276D02*
X120919028Y-61464133D01*
X120919028Y-61464133D02*
X120966647Y-61315323D01*
X120966647Y-61315323D02*
X120966647Y-61220085D01*
X119966647Y-62202228D02*
X120776170Y-62101038D01*
X120776170Y-62101038D02*
X120871408Y-62136752D01*
X120871408Y-62136752D02*
X120919028Y-62178419D01*
X120919028Y-62178419D02*
X120966647Y-62267705D01*
X120966647Y-62267705D02*
X120966647Y-62458181D01*
X120966647Y-62458181D02*
X120919028Y-62559371D01*
X120919028Y-62559371D02*
X120871408Y-62612943D01*
X120871408Y-62612943D02*
X120776170Y-62672466D01*
X120776170Y-62672466D02*
X119966647Y-62773657D01*
X120966647Y-63124847D02*
X119966647Y-63249847D01*
X119966647Y-63249847D02*
X120680932Y-63493895D01*
X120680932Y-63493895D02*
X119966647Y-63916514D01*
X119966647Y-63916514D02*
X120966647Y-63791514D01*
X120966647Y-64267704D02*
X119966647Y-64392704D01*
X119966647Y-64392704D02*
X119966647Y-64773657D01*
X119966647Y-64773657D02*
X120014266Y-64862942D01*
X120014266Y-64862942D02*
X120061885Y-64904609D01*
X120061885Y-64904609D02*
X120157123Y-64940323D01*
X120157123Y-64940323D02*
X120299980Y-64922466D01*
X120299980Y-64922466D02*
X120395218Y-64862942D01*
X120395218Y-64862942D02*
X120442837Y-64809371D01*
X120442837Y-64809371D02*
X120490456Y-64708181D01*
X120490456Y-64708181D02*
X120490456Y-64327228D01*
X120442837Y-65333181D02*
X120442837Y-65666514D01*
X120966647Y-65743895D02*
X120966647Y-65267704D01*
X120966647Y-65267704D02*
X119966647Y-65392704D01*
X119966647Y-65392704D02*
X119966647Y-65868895D01*
X120966647Y-66743895D02*
X120490456Y-66470085D01*
X120966647Y-66172466D02*
X119966647Y-66297466D01*
X119966647Y-66297466D02*
X119966647Y-66678419D01*
X119966647Y-66678419D02*
X120014266Y-66767704D01*
X120014266Y-66767704D02*
X120061885Y-66809371D01*
X120061885Y-66809371D02*
X120157123Y-66845085D01*
X120157123Y-66845085D02*
X120299980Y-66827228D01*
X120299980Y-66827228D02*
X120395218Y-66767704D01*
X120395218Y-66767704D02*
X120442837Y-66714133D01*
X120442837Y-66714133D02*
X120490456Y-66612943D01*
X120490456Y-66612943D02*
X120490456Y-66231990D01*
X120966647Y-67934371D02*
X119966647Y-68059371D01*
X119966647Y-68059371D02*
X119966647Y-68440324D01*
X119966647Y-68440324D02*
X120014266Y-68529609D01*
X120014266Y-68529609D02*
X120061885Y-68571276D01*
X120061885Y-68571276D02*
X120157123Y-68606990D01*
X120157123Y-68606990D02*
X120299980Y-68589133D01*
X120299980Y-68589133D02*
X120395218Y-68529609D01*
X120395218Y-68529609D02*
X120442837Y-68476038D01*
X120442837Y-68476038D02*
X120490456Y-68374848D01*
X120490456Y-68374848D02*
X120490456Y-67993895D01*
X120680932Y-68922467D02*
X120680932Y-69398657D01*
X120966647Y-68791514D02*
X119966647Y-69249848D01*
X119966647Y-69249848D02*
X120966647Y-69458181D01*
X120966647Y-69791514D02*
X119966647Y-69916514D01*
X119966647Y-69916514D02*
X119966647Y-70154610D01*
X119966647Y-70154610D02*
X120014266Y-70291514D01*
X120014266Y-70291514D02*
X120109504Y-70374848D01*
X120109504Y-70374848D02*
X120204742Y-70410562D01*
X120204742Y-70410562D02*
X120395218Y-70434372D01*
X120395218Y-70434372D02*
X120538075Y-70416514D01*
X120538075Y-70416514D02*
X120728551Y-70345086D01*
X120728551Y-70345086D02*
X120823789Y-70285562D01*
X120823789Y-70285562D02*
X120919028Y-70178419D01*
X120919028Y-70178419D02*
X120966647Y-70029610D01*
X120966647Y-70029610D02*
X120966647Y-69791514D01*
X120919028Y-70749848D02*
X120966647Y-70886752D01*
X120966647Y-70886752D02*
X120966647Y-71124848D01*
X120966647Y-71124848D02*
X120919028Y-71226038D01*
X120919028Y-71226038D02*
X120871408Y-71279610D01*
X120871408Y-71279610D02*
X120776170Y-71339133D01*
X120776170Y-71339133D02*
X120680932Y-71351038D01*
X120680932Y-71351038D02*
X120585694Y-71315324D01*
X120585694Y-71315324D02*
X120538075Y-71273657D01*
X120538075Y-71273657D02*
X120490456Y-71184372D01*
X120490456Y-71184372D02*
X120442837Y-70999848D01*
X120442837Y-70999848D02*
X120395218Y-70910562D01*
X120395218Y-70910562D02*
X120347599Y-70868895D01*
X120347599Y-70868895D02*
X120252361Y-70833181D01*
X120252361Y-70833181D02*
X120157123Y-70845086D01*
X120157123Y-70845086D02*
X120061885Y-70904610D01*
X120061885Y-70904610D02*
X120014266Y-70958181D01*
X120014266Y-70958181D02*
X119966647Y-71059372D01*
X119966647Y-71059372D02*
X119966647Y-71297467D01*
X119966647Y-71297467D02*
X120014266Y-71434372D01*
X122576591Y-54220084D02*
X122528972Y-54130798D01*
X122528972Y-54130798D02*
X122481352Y-54089131D01*
X122481352Y-54089131D02*
X122386114Y-54053417D01*
X122386114Y-54053417D02*
X122100400Y-54089131D01*
X122100400Y-54089131D02*
X122005162Y-54148655D01*
X122005162Y-54148655D02*
X121957543Y-54202226D01*
X121957543Y-54202226D02*
X121909924Y-54303417D01*
X121909924Y-54303417D02*
X121909924Y-54446274D01*
X121909924Y-54446274D02*
X121957543Y-54535560D01*
X121957543Y-54535560D02*
X122005162Y-54577226D01*
X122005162Y-54577226D02*
X122100400Y-54612941D01*
X122100400Y-54612941D02*
X122386114Y-54577226D01*
X122386114Y-54577226D02*
X122481352Y-54517703D01*
X122481352Y-54517703D02*
X122528972Y-54464131D01*
X122528972Y-54464131D02*
X122576591Y-54362941D01*
X122576591Y-54362941D02*
X122576591Y-54220084D01*
X121909924Y-55065322D02*
X122576591Y-54981988D01*
X122005162Y-55053417D02*
X121957543Y-55106988D01*
X121957543Y-55106988D02*
X121909924Y-55208179D01*
X121909924Y-55208179D02*
X121909924Y-55351036D01*
X121909924Y-55351036D02*
X121957543Y-55440322D01*
X121957543Y-55440322D02*
X122052781Y-55476036D01*
X122052781Y-55476036D02*
X122576591Y-55410560D01*
X121909924Y-56589132D02*
X121909924Y-56970084D01*
X121576591Y-56773655D02*
X122433733Y-56666513D01*
X122433733Y-56666513D02*
X122528972Y-56702227D01*
X122528972Y-56702227D02*
X122576591Y-56791513D01*
X122576591Y-56791513D02*
X122576591Y-56886751D01*
X122576591Y-57220084D02*
X121576591Y-57345084D01*
X122576591Y-57648656D02*
X122052781Y-57714132D01*
X122052781Y-57714132D02*
X121957543Y-57678418D01*
X121957543Y-57678418D02*
X121909924Y-57589132D01*
X121909924Y-57589132D02*
X121909924Y-57446275D01*
X121909924Y-57446275D02*
X121957543Y-57345084D01*
X121957543Y-57345084D02*
X122005162Y-57291513D01*
X122528972Y-58511751D02*
X122576591Y-58410561D01*
X122576591Y-58410561D02*
X122576591Y-58220084D01*
X122576591Y-58220084D02*
X122528972Y-58130799D01*
X122528972Y-58130799D02*
X122433733Y-58095084D01*
X122433733Y-58095084D02*
X122052781Y-58142704D01*
X122052781Y-58142704D02*
X121957543Y-58202227D01*
X121957543Y-58202227D02*
X121909924Y-58303418D01*
X121909924Y-58303418D02*
X121909924Y-58493894D01*
X121909924Y-58493894D02*
X121957543Y-58583180D01*
X121957543Y-58583180D02*
X122052781Y-58618894D01*
X122052781Y-58618894D02*
X122148019Y-58606989D01*
X122148019Y-58606989D02*
X122243257Y-58118894D01*
X121576591Y-60059371D02*
X121576591Y-60249847D01*
X121576591Y-60249847D02*
X121624210Y-60339132D01*
X121624210Y-60339132D02*
X121719448Y-60422466D01*
X121719448Y-60422466D02*
X121909924Y-60446275D01*
X121909924Y-60446275D02*
X122243257Y-60404609D01*
X122243257Y-60404609D02*
X122433733Y-60333180D01*
X122433733Y-60333180D02*
X122528972Y-60226037D01*
X122528972Y-60226037D02*
X122576591Y-60124847D01*
X122576591Y-60124847D02*
X122576591Y-59934371D01*
X122576591Y-59934371D02*
X122528972Y-59845085D01*
X122528972Y-59845085D02*
X122433733Y-59761752D01*
X122433733Y-59761752D02*
X122243257Y-59737942D01*
X122243257Y-59737942D02*
X121909924Y-59779609D01*
X121909924Y-59779609D02*
X121719448Y-59851037D01*
X121719448Y-59851037D02*
X121624210Y-59958180D01*
X121624210Y-59958180D02*
X121576591Y-60059371D01*
X122576591Y-60791513D02*
X121576591Y-60916513D01*
X121576591Y-60916513D02*
X121576591Y-61297466D01*
X121576591Y-61297466D02*
X121624210Y-61386751D01*
X121624210Y-61386751D02*
X121671829Y-61428418D01*
X121671829Y-61428418D02*
X121767067Y-61464132D01*
X121767067Y-61464132D02*
X121909924Y-61446275D01*
X121909924Y-61446275D02*
X122005162Y-61386751D01*
X122005162Y-61386751D02*
X122052781Y-61333180D01*
X122052781Y-61333180D02*
X122100400Y-61231990D01*
X122100400Y-61231990D02*
X122100400Y-60851037D01*
X122576591Y-61791513D02*
X121576591Y-61916513D01*
X121576591Y-61916513D02*
X121576591Y-62297466D01*
X121576591Y-62297466D02*
X121624210Y-62386751D01*
X121624210Y-62386751D02*
X121671829Y-62428418D01*
X121671829Y-62428418D02*
X121767067Y-62464132D01*
X121767067Y-62464132D02*
X121909924Y-62446275D01*
X121909924Y-62446275D02*
X122005162Y-62386751D01*
X122005162Y-62386751D02*
X122052781Y-62333180D01*
X122052781Y-62333180D02*
X122100400Y-62231990D01*
X122100400Y-62231990D02*
X122100400Y-61851037D01*
X121576591Y-63106990D02*
X121576591Y-63297466D01*
X121576591Y-63297466D02*
X121624210Y-63386751D01*
X121624210Y-63386751D02*
X121719448Y-63470085D01*
X121719448Y-63470085D02*
X121909924Y-63493894D01*
X121909924Y-63493894D02*
X122243257Y-63452228D01*
X122243257Y-63452228D02*
X122433733Y-63380799D01*
X122433733Y-63380799D02*
X122528972Y-63273656D01*
X122528972Y-63273656D02*
X122576591Y-63172466D01*
X122576591Y-63172466D02*
X122576591Y-62981990D01*
X122576591Y-62981990D02*
X122528972Y-62892704D01*
X122528972Y-62892704D02*
X122433733Y-62809371D01*
X122433733Y-62809371D02*
X122243257Y-62785561D01*
X122243257Y-62785561D02*
X121909924Y-62827228D01*
X121909924Y-62827228D02*
X121719448Y-62898656D01*
X121719448Y-62898656D02*
X121624210Y-63005799D01*
X121624210Y-63005799D02*
X121576591Y-63106990D01*
X122528972Y-63797466D02*
X122576591Y-63934370D01*
X122576591Y-63934370D02*
X122576591Y-64172466D01*
X122576591Y-64172466D02*
X122528972Y-64273656D01*
X122528972Y-64273656D02*
X122481352Y-64327228D01*
X122481352Y-64327228D02*
X122386114Y-64386751D01*
X122386114Y-64386751D02*
X122290876Y-64398656D01*
X122290876Y-64398656D02*
X122195638Y-64362942D01*
X122195638Y-64362942D02*
X122148019Y-64321275D01*
X122148019Y-64321275D02*
X122100400Y-64231990D01*
X122100400Y-64231990D02*
X122052781Y-64047466D01*
X122052781Y-64047466D02*
X122005162Y-63958180D01*
X122005162Y-63958180D02*
X121957543Y-63916513D01*
X121957543Y-63916513D02*
X121862305Y-63880799D01*
X121862305Y-63880799D02*
X121767067Y-63892704D01*
X121767067Y-63892704D02*
X121671829Y-63952228D01*
X121671829Y-63952228D02*
X121624210Y-64005799D01*
X121624210Y-64005799D02*
X121576591Y-64106990D01*
X121576591Y-64106990D02*
X121576591Y-64345085D01*
X121576591Y-64345085D02*
X121624210Y-64481990D01*
X122576591Y-64791513D02*
X121576591Y-64916513D01*
X121576591Y-65249846D02*
X121576591Y-65821275D01*
X122576591Y-65410561D02*
X121576591Y-65535561D01*
X122052781Y-66095085D02*
X122052781Y-66428418D01*
X122576591Y-66505799D02*
X122576591Y-66029608D01*
X122576591Y-66029608D02*
X121576591Y-66154608D01*
X121576591Y-66154608D02*
X121576591Y-66630799D01*
X122528972Y-67654609D02*
X122576591Y-67791513D01*
X122576591Y-67791513D02*
X122576591Y-68029609D01*
X122576591Y-68029609D02*
X122528972Y-68130799D01*
X122528972Y-68130799D02*
X122481352Y-68184371D01*
X122481352Y-68184371D02*
X122386114Y-68243894D01*
X122386114Y-68243894D02*
X122290876Y-68255799D01*
X122290876Y-68255799D02*
X122195638Y-68220085D01*
X122195638Y-68220085D02*
X122148019Y-68178418D01*
X122148019Y-68178418D02*
X122100400Y-68089133D01*
X122100400Y-68089133D02*
X122052781Y-67904609D01*
X122052781Y-67904609D02*
X122005162Y-67815323D01*
X122005162Y-67815323D02*
X121957543Y-67773656D01*
X121957543Y-67773656D02*
X121862305Y-67737942D01*
X121862305Y-67737942D02*
X121767067Y-67749847D01*
X121767067Y-67749847D02*
X121671829Y-67809371D01*
X121671829Y-67809371D02*
X121624210Y-67862942D01*
X121624210Y-67862942D02*
X121576591Y-67964133D01*
X121576591Y-67964133D02*
X121576591Y-68202228D01*
X121576591Y-68202228D02*
X121624210Y-68339133D01*
X122576591Y-68648656D02*
X121576591Y-68773656D01*
X122576591Y-69124846D02*
X121576591Y-69249846D01*
X121576591Y-69249846D02*
X121576591Y-69487942D01*
X121576591Y-69487942D02*
X121624210Y-69624846D01*
X121624210Y-69624846D02*
X121719448Y-69708180D01*
X121719448Y-69708180D02*
X121814686Y-69743894D01*
X121814686Y-69743894D02*
X122005162Y-69767704D01*
X122005162Y-69767704D02*
X122148019Y-69749846D01*
X122148019Y-69749846D02*
X122338495Y-69678418D01*
X122338495Y-69678418D02*
X122433733Y-69618894D01*
X122433733Y-69618894D02*
X122528972Y-69511751D01*
X122528972Y-69511751D02*
X122576591Y-69362942D01*
X122576591Y-69362942D02*
X122576591Y-69124846D01*
X122052781Y-70190323D02*
X122052781Y-70523656D01*
X122576591Y-70601037D02*
X122576591Y-70124846D01*
X122576591Y-70124846D02*
X121576591Y-70249846D01*
X121576591Y-70249846D02*
X121576591Y-70726037D01*
D11*
X115464880Y-51312702D02*
X115522023Y-51284131D01*
X115522023Y-51284131D02*
X115607737Y-51284131D01*
X115607737Y-51284131D02*
X115693451Y-51312702D01*
X115693451Y-51312702D02*
X115750594Y-51369845D01*
X115750594Y-51369845D02*
X115779165Y-51426988D01*
X115779165Y-51426988D02*
X115807737Y-51541274D01*
X115807737Y-51541274D02*
X115807737Y-51626988D01*
X115807737Y-51626988D02*
X115779165Y-51741274D01*
X115779165Y-51741274D02*
X115750594Y-51798417D01*
X115750594Y-51798417D02*
X115693451Y-51855560D01*
X115693451Y-51855560D02*
X115607737Y-51884131D01*
X115607737Y-51884131D02*
X115550594Y-51884131D01*
X115550594Y-51884131D02*
X115464880Y-51855560D01*
X115464880Y-51855560D02*
X115436308Y-51826988D01*
X115436308Y-51826988D02*
X115436308Y-51626988D01*
X115436308Y-51626988D02*
X115550594Y-51626988D01*
X115179165Y-51884131D02*
X115179165Y-51284131D01*
X115179165Y-51284131D02*
X114836308Y-51884131D01*
X114836308Y-51884131D02*
X114836308Y-51284131D01*
X114550594Y-51884131D02*
X114550594Y-51284131D01*
X114550594Y-51284131D02*
X114407737Y-51284131D01*
X114407737Y-51284131D02*
X114322023Y-51312702D01*
X114322023Y-51312702D02*
X114264880Y-51369845D01*
X114264880Y-51369845D02*
X114236309Y-51426988D01*
X114236309Y-51426988D02*
X114207737Y-51541274D01*
X114207737Y-51541274D02*
X114207737Y-51626988D01*
X114207737Y-51626988D02*
X114236309Y-51741274D01*
X114236309Y-51741274D02*
X114264880Y-51798417D01*
X114264880Y-51798417D02*
X114322023Y-51855560D01*
X114322023Y-51855560D02*
X114407737Y-51884131D01*
X114407737Y-51884131D02*
X114550594Y-51884131D01*
D10*
X115226247Y-54601036D02*
X115226247Y-54029607D01*
X115226247Y-54315322D02*
X114226247Y-54440322D01*
X114226247Y-54440322D02*
X114369104Y-54327226D01*
X114369104Y-54327226D02*
X114464342Y-54220084D01*
X114464342Y-54220084D02*
X114511961Y-54118893D01*
X115607199Y-54886750D02*
X115559580Y-54940322D01*
X115559580Y-54940322D02*
X115416723Y-55053417D01*
X115416723Y-55053417D02*
X115321485Y-55112941D01*
X115321485Y-55112941D02*
X115178628Y-55178417D01*
X115178628Y-55178417D02*
X114940532Y-55255798D01*
X114940532Y-55255798D02*
X114750056Y-55279607D01*
X114750056Y-55279607D02*
X114511961Y-55261750D01*
X114511961Y-55261750D02*
X114369104Y-55231988D01*
X114369104Y-55231988D02*
X114273866Y-55196274D01*
X114273866Y-55196274D02*
X114131008Y-55118893D01*
X114131008Y-55118893D02*
X114083389Y-55077226D01*
X115226247Y-56458179D02*
X114226247Y-56583179D01*
X114226247Y-56583179D02*
X114226247Y-56964132D01*
X114226247Y-56964132D02*
X114273866Y-57053417D01*
X114273866Y-57053417D02*
X114321485Y-57095084D01*
X114321485Y-57095084D02*
X114416723Y-57130798D01*
X114416723Y-57130798D02*
X114559580Y-57112941D01*
X114559580Y-57112941D02*
X114654818Y-57053417D01*
X114654818Y-57053417D02*
X114702437Y-56999846D01*
X114702437Y-56999846D02*
X114750056Y-56898656D01*
X114750056Y-56898656D02*
X114750056Y-56517703D01*
X115226247Y-57601037D02*
X115178628Y-57511751D01*
X115178628Y-57511751D02*
X115083389Y-57476037D01*
X115083389Y-57476037D02*
X114226247Y-57583179D01*
X115226247Y-58410561D02*
X114702437Y-58476037D01*
X114702437Y-58476037D02*
X114607199Y-58440323D01*
X114607199Y-58440323D02*
X114559580Y-58351037D01*
X114559580Y-58351037D02*
X114559580Y-58160561D01*
X114559580Y-58160561D02*
X114607199Y-58059370D01*
X115178628Y-58416513D02*
X115226247Y-58315323D01*
X115226247Y-58315323D02*
X115226247Y-58077227D01*
X115226247Y-58077227D02*
X115178628Y-57987942D01*
X115178628Y-57987942D02*
X115083389Y-57952227D01*
X115083389Y-57952227D02*
X114988151Y-57964132D01*
X114988151Y-57964132D02*
X114892913Y-58023656D01*
X114892913Y-58023656D02*
X114845294Y-58124847D01*
X114845294Y-58124847D02*
X114845294Y-58362942D01*
X114845294Y-58362942D02*
X114797675Y-58464132D01*
X115178628Y-59321275D02*
X115226247Y-59220085D01*
X115226247Y-59220085D02*
X115226247Y-59029609D01*
X115226247Y-59029609D02*
X115178628Y-58940323D01*
X115178628Y-58940323D02*
X115131008Y-58898656D01*
X115131008Y-58898656D02*
X115035770Y-58862942D01*
X115035770Y-58862942D02*
X114750056Y-58898656D01*
X114750056Y-58898656D02*
X114654818Y-58958180D01*
X114654818Y-58958180D02*
X114607199Y-59011751D01*
X114607199Y-59011751D02*
X114559580Y-59112942D01*
X114559580Y-59112942D02*
X114559580Y-59303418D01*
X114559580Y-59303418D02*
X114607199Y-59392704D01*
X115178628Y-60130799D02*
X115226247Y-60029609D01*
X115226247Y-60029609D02*
X115226247Y-59839132D01*
X115226247Y-59839132D02*
X115178628Y-59749847D01*
X115178628Y-59749847D02*
X115083389Y-59714132D01*
X115083389Y-59714132D02*
X114702437Y-59761752D01*
X114702437Y-59761752D02*
X114607199Y-59821275D01*
X114607199Y-59821275D02*
X114559580Y-59922466D01*
X114559580Y-59922466D02*
X114559580Y-60112942D01*
X114559580Y-60112942D02*
X114607199Y-60202228D01*
X114607199Y-60202228D02*
X114702437Y-60237942D01*
X114702437Y-60237942D02*
X114797675Y-60226037D01*
X114797675Y-60226037D02*
X114892913Y-59737942D01*
X115226247Y-61362942D02*
X114226247Y-61487942D01*
X114226247Y-61487942D02*
X114226247Y-61868895D01*
X114226247Y-61868895D02*
X114273866Y-61958180D01*
X114273866Y-61958180D02*
X114321485Y-61999847D01*
X114321485Y-61999847D02*
X114416723Y-62035561D01*
X114416723Y-62035561D02*
X114559580Y-62017704D01*
X114559580Y-62017704D02*
X114654818Y-61958180D01*
X114654818Y-61958180D02*
X114702437Y-61904609D01*
X114702437Y-61904609D02*
X114750056Y-61803419D01*
X114750056Y-61803419D02*
X114750056Y-61422466D01*
X115226247Y-62362942D02*
X114559580Y-62446276D01*
X114750056Y-62422466D02*
X114654818Y-62481990D01*
X114654818Y-62481990D02*
X114607199Y-62535561D01*
X114607199Y-62535561D02*
X114559580Y-62636752D01*
X114559580Y-62636752D02*
X114559580Y-62731990D01*
X115226247Y-63124848D02*
X115178628Y-63035562D01*
X115178628Y-63035562D02*
X115131008Y-62993895D01*
X115131008Y-62993895D02*
X115035770Y-62958181D01*
X115035770Y-62958181D02*
X114750056Y-62993895D01*
X114750056Y-62993895D02*
X114654818Y-63053419D01*
X114654818Y-63053419D02*
X114607199Y-63106990D01*
X114607199Y-63106990D02*
X114559580Y-63208181D01*
X114559580Y-63208181D02*
X114559580Y-63351038D01*
X114559580Y-63351038D02*
X114607199Y-63440324D01*
X114607199Y-63440324D02*
X114654818Y-63481990D01*
X114654818Y-63481990D02*
X114750056Y-63517705D01*
X114750056Y-63517705D02*
X115035770Y-63481990D01*
X115035770Y-63481990D02*
X115131008Y-63422467D01*
X115131008Y-63422467D02*
X115178628Y-63368895D01*
X115178628Y-63368895D02*
X115226247Y-63267705D01*
X115226247Y-63267705D02*
X115226247Y-63124848D01*
X114845294Y-63934371D02*
X114845294Y-64696276D01*
X115226247Y-65124847D02*
X114226247Y-65249847D01*
X114226247Y-65249847D02*
X114940532Y-65493895D01*
X114940532Y-65493895D02*
X114226247Y-65916514D01*
X114226247Y-65916514D02*
X115226247Y-65791514D01*
X115226247Y-66267704D02*
X114559580Y-66351038D01*
X114226247Y-66392704D02*
X114273866Y-66339133D01*
X114273866Y-66339133D02*
X114321485Y-66380800D01*
X114321485Y-66380800D02*
X114273866Y-66434371D01*
X114273866Y-66434371D02*
X114226247Y-66392704D01*
X114226247Y-66392704D02*
X114321485Y-66380800D01*
X115178628Y-67178418D02*
X115226247Y-67077228D01*
X115226247Y-67077228D02*
X115226247Y-66886752D01*
X115226247Y-66886752D02*
X115178628Y-66797466D01*
X115178628Y-66797466D02*
X115131008Y-66755799D01*
X115131008Y-66755799D02*
X115035770Y-66720085D01*
X115035770Y-66720085D02*
X114750056Y-66755799D01*
X114750056Y-66755799D02*
X114654818Y-66815323D01*
X114654818Y-66815323D02*
X114607199Y-66868894D01*
X114607199Y-66868894D02*
X114559580Y-66970085D01*
X114559580Y-66970085D02*
X114559580Y-67160561D01*
X114559580Y-67160561D02*
X114607199Y-67249847D01*
X115226247Y-67601037D02*
X114559580Y-67684371D01*
X114750056Y-67660561D02*
X114654818Y-67720085D01*
X114654818Y-67720085D02*
X114607199Y-67773656D01*
X114607199Y-67773656D02*
X114559580Y-67874847D01*
X114559580Y-67874847D02*
X114559580Y-67970085D01*
X115226247Y-68362943D02*
X115178628Y-68273657D01*
X115178628Y-68273657D02*
X115131008Y-68231990D01*
X115131008Y-68231990D02*
X115035770Y-68196276D01*
X115035770Y-68196276D02*
X114750056Y-68231990D01*
X114750056Y-68231990D02*
X114654818Y-68291514D01*
X114654818Y-68291514D02*
X114607199Y-68345085D01*
X114607199Y-68345085D02*
X114559580Y-68446276D01*
X114559580Y-68446276D02*
X114559580Y-68589133D01*
X114559580Y-68589133D02*
X114607199Y-68678419D01*
X114607199Y-68678419D02*
X114654818Y-68720085D01*
X114654818Y-68720085D02*
X114750056Y-68755800D01*
X114750056Y-68755800D02*
X115035770Y-68720085D01*
X115035770Y-68720085D02*
X115131008Y-68660562D01*
X115131008Y-68660562D02*
X115178628Y-68606990D01*
X115178628Y-68606990D02*
X115226247Y-68505800D01*
X115226247Y-68505800D02*
X115226247Y-68362943D01*
X114559580Y-69874848D02*
X115226247Y-69981990D01*
X115226247Y-69981990D02*
X114750056Y-70231990D01*
X114750056Y-70231990D02*
X115226247Y-70362943D01*
X115226247Y-70362943D02*
X114559580Y-70636752D01*
X115226247Y-70934371D02*
X114559580Y-71017705D01*
X114226247Y-71059371D02*
X114273866Y-71005800D01*
X114273866Y-71005800D02*
X114321485Y-71047467D01*
X114321485Y-71047467D02*
X114273866Y-71101038D01*
X114273866Y-71101038D02*
X114226247Y-71059371D01*
X114226247Y-71059371D02*
X114321485Y-71047467D01*
X114559580Y-71351038D02*
X114559580Y-71731990D01*
X114226247Y-71535561D02*
X115083389Y-71428419D01*
X115083389Y-71428419D02*
X115178628Y-71464133D01*
X115178628Y-71464133D02*
X115226247Y-71553419D01*
X115226247Y-71553419D02*
X115226247Y-71648657D01*
X115226247Y-71981990D02*
X114226247Y-72106990D01*
X115226247Y-72410562D02*
X114702437Y-72476038D01*
X114702437Y-72476038D02*
X114607199Y-72440324D01*
X114607199Y-72440324D02*
X114559580Y-72351038D01*
X114559580Y-72351038D02*
X114559580Y-72208181D01*
X114559580Y-72208181D02*
X114607199Y-72106990D01*
X114607199Y-72106990D02*
X114654818Y-72053419D01*
X116788572Y-54511750D02*
X116836191Y-54410560D01*
X116836191Y-54410560D02*
X116836191Y-54220084D01*
X116836191Y-54220084D02*
X116788572Y-54130798D01*
X116788572Y-54130798D02*
X116740952Y-54089131D01*
X116740952Y-54089131D02*
X116645714Y-54053417D01*
X116645714Y-54053417D02*
X116360000Y-54089131D01*
X116360000Y-54089131D02*
X116264762Y-54148655D01*
X116264762Y-54148655D02*
X116217143Y-54202226D01*
X116217143Y-54202226D02*
X116169524Y-54303417D01*
X116169524Y-54303417D02*
X116169524Y-54493893D01*
X116169524Y-54493893D02*
X116217143Y-54583179D01*
X116836191Y-55077227D02*
X116788572Y-54987941D01*
X116788572Y-54987941D02*
X116740952Y-54946274D01*
X116740952Y-54946274D02*
X116645714Y-54910560D01*
X116645714Y-54910560D02*
X116360000Y-54946274D01*
X116360000Y-54946274D02*
X116264762Y-55005798D01*
X116264762Y-55005798D02*
X116217143Y-55059369D01*
X116217143Y-55059369D02*
X116169524Y-55160560D01*
X116169524Y-55160560D02*
X116169524Y-55303417D01*
X116169524Y-55303417D02*
X116217143Y-55392703D01*
X116217143Y-55392703D02*
X116264762Y-55434369D01*
X116264762Y-55434369D02*
X116360000Y-55470084D01*
X116360000Y-55470084D02*
X116645714Y-55434369D01*
X116645714Y-55434369D02*
X116740952Y-55374846D01*
X116740952Y-55374846D02*
X116788572Y-55321274D01*
X116788572Y-55321274D02*
X116836191Y-55220084D01*
X116836191Y-55220084D02*
X116836191Y-55077227D01*
X116836191Y-55839131D02*
X116169524Y-55922465D01*
X116264762Y-55910560D02*
X116217143Y-55964131D01*
X116217143Y-55964131D02*
X116169524Y-56065322D01*
X116169524Y-56065322D02*
X116169524Y-56208179D01*
X116169524Y-56208179D02*
X116217143Y-56297465D01*
X116217143Y-56297465D02*
X116312381Y-56333179D01*
X116312381Y-56333179D02*
X116836191Y-56267703D01*
X116312381Y-56333179D02*
X116217143Y-56392703D01*
X116217143Y-56392703D02*
X116169524Y-56493893D01*
X116169524Y-56493893D02*
X116169524Y-56636750D01*
X116169524Y-56636750D02*
X116217143Y-56726036D01*
X116217143Y-56726036D02*
X116312381Y-56761750D01*
X116312381Y-56761750D02*
X116836191Y-56696274D01*
X116169524Y-57255798D02*
X117169524Y-57130798D01*
X116217143Y-57249845D02*
X116169524Y-57351036D01*
X116169524Y-57351036D02*
X116169524Y-57541512D01*
X116169524Y-57541512D02*
X116217143Y-57630798D01*
X116217143Y-57630798D02*
X116264762Y-57672464D01*
X116264762Y-57672464D02*
X116360000Y-57708179D01*
X116360000Y-57708179D02*
X116645714Y-57672464D01*
X116645714Y-57672464D02*
X116740952Y-57612941D01*
X116740952Y-57612941D02*
X116788572Y-57559369D01*
X116788572Y-57559369D02*
X116836191Y-57458179D01*
X116836191Y-57458179D02*
X116836191Y-57267702D01*
X116836191Y-57267702D02*
X116788572Y-57178417D01*
X116836191Y-58220084D02*
X116788572Y-58130798D01*
X116788572Y-58130798D02*
X116740952Y-58089131D01*
X116740952Y-58089131D02*
X116645714Y-58053417D01*
X116645714Y-58053417D02*
X116360000Y-58089131D01*
X116360000Y-58089131D02*
X116264762Y-58148655D01*
X116264762Y-58148655D02*
X116217143Y-58202226D01*
X116217143Y-58202226D02*
X116169524Y-58303417D01*
X116169524Y-58303417D02*
X116169524Y-58446274D01*
X116169524Y-58446274D02*
X116217143Y-58535560D01*
X116217143Y-58535560D02*
X116264762Y-58577226D01*
X116264762Y-58577226D02*
X116360000Y-58612941D01*
X116360000Y-58612941D02*
X116645714Y-58577226D01*
X116645714Y-58577226D02*
X116740952Y-58517703D01*
X116740952Y-58517703D02*
X116788572Y-58464131D01*
X116788572Y-58464131D02*
X116836191Y-58362941D01*
X116836191Y-58362941D02*
X116836191Y-58220084D01*
X116169524Y-59065322D02*
X116836191Y-58981988D01*
X116264762Y-59053417D02*
X116217143Y-59106988D01*
X116217143Y-59106988D02*
X116169524Y-59208179D01*
X116169524Y-59208179D02*
X116169524Y-59351036D01*
X116169524Y-59351036D02*
X116217143Y-59440322D01*
X116217143Y-59440322D02*
X116312381Y-59476036D01*
X116312381Y-59476036D02*
X116836191Y-59410560D01*
X116788572Y-60273655D02*
X116836191Y-60172465D01*
X116836191Y-60172465D02*
X116836191Y-59981988D01*
X116836191Y-59981988D02*
X116788572Y-59892703D01*
X116788572Y-59892703D02*
X116693333Y-59856988D01*
X116693333Y-59856988D02*
X116312381Y-59904608D01*
X116312381Y-59904608D02*
X116217143Y-59964131D01*
X116217143Y-59964131D02*
X116169524Y-60065322D01*
X116169524Y-60065322D02*
X116169524Y-60255798D01*
X116169524Y-60255798D02*
X116217143Y-60345084D01*
X116217143Y-60345084D02*
X116312381Y-60380798D01*
X116312381Y-60380798D02*
X116407619Y-60368893D01*
X116407619Y-60368893D02*
X116502857Y-59880798D01*
X116169524Y-60827227D02*
X116836191Y-60743893D01*
X116264762Y-60815322D02*
X116217143Y-60868893D01*
X116217143Y-60868893D02*
X116169524Y-60970084D01*
X116169524Y-60970084D02*
X116169524Y-61112941D01*
X116169524Y-61112941D02*
X116217143Y-61202227D01*
X116217143Y-61202227D02*
X116312381Y-61237941D01*
X116312381Y-61237941D02*
X116836191Y-61172465D01*
X116169524Y-61589132D02*
X116169524Y-61970084D01*
X115836191Y-61773655D02*
X116693333Y-61666513D01*
X116693333Y-61666513D02*
X116788572Y-61702227D01*
X116788572Y-61702227D02*
X116836191Y-61791513D01*
X116836191Y-61791513D02*
X116836191Y-61886751D01*
X116788572Y-62178418D02*
X116836191Y-62267703D01*
X116836191Y-62267703D02*
X116836191Y-62458180D01*
X116836191Y-62458180D02*
X116788572Y-62559370D01*
X116788572Y-62559370D02*
X116693333Y-62618894D01*
X116693333Y-62618894D02*
X116645714Y-62624846D01*
X116645714Y-62624846D02*
X116550476Y-62589132D01*
X116550476Y-62589132D02*
X116502857Y-62499846D01*
X116502857Y-62499846D02*
X116502857Y-62356989D01*
X116502857Y-62356989D02*
X116455238Y-62267703D01*
X116455238Y-62267703D02*
X116360000Y-62231989D01*
X116360000Y-62231989D02*
X116312381Y-62237942D01*
X116312381Y-62237942D02*
X116217143Y-62297465D01*
X116217143Y-62297465D02*
X116169524Y-62398656D01*
X116169524Y-62398656D02*
X116169524Y-62541513D01*
X116169524Y-62541513D02*
X116217143Y-62630799D01*
X116169524Y-63731990D02*
X116169524Y-64112942D01*
X116836191Y-63791513D02*
X115979048Y-63898656D01*
X115979048Y-63898656D02*
X115883810Y-63958180D01*
X115883810Y-63958180D02*
X115836191Y-64059371D01*
X115836191Y-64059371D02*
X115836191Y-64154609D01*
X116836191Y-64791514D02*
X116312381Y-64856990D01*
X116312381Y-64856990D02*
X116217143Y-64821276D01*
X116217143Y-64821276D02*
X116169524Y-64731990D01*
X116169524Y-64731990D02*
X116169524Y-64541514D01*
X116169524Y-64541514D02*
X116217143Y-64440323D01*
X116788572Y-64797466D02*
X116836191Y-64696276D01*
X116836191Y-64696276D02*
X116836191Y-64458180D01*
X116836191Y-64458180D02*
X116788572Y-64368895D01*
X116788572Y-64368895D02*
X116693333Y-64333180D01*
X116693333Y-64333180D02*
X116598095Y-64345085D01*
X116598095Y-64345085D02*
X116502857Y-64404609D01*
X116502857Y-64404609D02*
X116455238Y-64505800D01*
X116455238Y-64505800D02*
X116455238Y-64743895D01*
X116455238Y-64743895D02*
X116407619Y-64845085D01*
X116788572Y-65702228D02*
X116836191Y-65601038D01*
X116836191Y-65601038D02*
X116836191Y-65410562D01*
X116836191Y-65410562D02*
X116788572Y-65321276D01*
X116788572Y-65321276D02*
X116740952Y-65279609D01*
X116740952Y-65279609D02*
X116645714Y-65243895D01*
X116645714Y-65243895D02*
X116360000Y-65279609D01*
X116360000Y-65279609D02*
X116264762Y-65339133D01*
X116264762Y-65339133D02*
X116217143Y-65392704D01*
X116217143Y-65392704D02*
X116169524Y-65493895D01*
X116169524Y-65493895D02*
X116169524Y-65684371D01*
X116169524Y-65684371D02*
X116217143Y-65773657D01*
X116836191Y-66124847D02*
X116169524Y-66208181D01*
X115836191Y-66249847D02*
X115883810Y-66196276D01*
X115883810Y-66196276D02*
X115931429Y-66237943D01*
X115931429Y-66237943D02*
X115883810Y-66291514D01*
X115883810Y-66291514D02*
X115836191Y-66249847D01*
X115836191Y-66249847D02*
X115931429Y-66237943D01*
X116169524Y-66684371D02*
X116836191Y-66601037D01*
X116264762Y-66672466D02*
X116217143Y-66726037D01*
X116217143Y-66726037D02*
X116169524Y-66827228D01*
X116169524Y-66827228D02*
X116169524Y-66970085D01*
X116169524Y-66970085D02*
X116217143Y-67059371D01*
X116217143Y-67059371D02*
X116312381Y-67095085D01*
X116312381Y-67095085D02*
X116836191Y-67029609D01*
X116169524Y-68017704D02*
X116979048Y-67916514D01*
X116979048Y-67916514D02*
X117074286Y-67856990D01*
X117074286Y-67856990D02*
X117121905Y-67803418D01*
X117121905Y-67803418D02*
X117169524Y-67702228D01*
X117169524Y-67702228D02*
X117169524Y-67559371D01*
X117169524Y-67559371D02*
X117121905Y-67470085D01*
X116788572Y-67940323D02*
X116836191Y-67839133D01*
X116836191Y-67839133D02*
X116836191Y-67648657D01*
X116836191Y-67648657D02*
X116788572Y-67559371D01*
X116788572Y-67559371D02*
X116740952Y-67517704D01*
X116740952Y-67517704D02*
X116645714Y-67481990D01*
X116645714Y-67481990D02*
X116360000Y-67517704D01*
X116360000Y-67517704D02*
X116264762Y-67577228D01*
X116264762Y-67577228D02*
X116217143Y-67630799D01*
X116217143Y-67630799D02*
X116169524Y-67731990D01*
X116169524Y-67731990D02*
X116169524Y-67922466D01*
X116169524Y-67922466D02*
X116217143Y-68011752D01*
X116836191Y-69172466D02*
X115836191Y-69297466D01*
X115836191Y-69297466D02*
X115836191Y-69535562D01*
X115836191Y-69535562D02*
X115883810Y-69672466D01*
X115883810Y-69672466D02*
X115979048Y-69755800D01*
X115979048Y-69755800D02*
X116074286Y-69791514D01*
X116074286Y-69791514D02*
X116264762Y-69815324D01*
X116264762Y-69815324D02*
X116407619Y-69797466D01*
X116407619Y-69797466D02*
X116598095Y-69726038D01*
X116598095Y-69726038D02*
X116693333Y-69666514D01*
X116693333Y-69666514D02*
X116788572Y-69559371D01*
X116788572Y-69559371D02*
X116836191Y-69410562D01*
X116836191Y-69410562D02*
X116836191Y-69172466D01*
X115836191Y-70487943D02*
X115836191Y-70678419D01*
X115836191Y-70678419D02*
X115883810Y-70767704D01*
X115883810Y-70767704D02*
X115979048Y-70851038D01*
X115979048Y-70851038D02*
X116169524Y-70874847D01*
X116169524Y-70874847D02*
X116502857Y-70833181D01*
X116502857Y-70833181D02*
X116693333Y-70761752D01*
X116693333Y-70761752D02*
X116788572Y-70654609D01*
X116788572Y-70654609D02*
X116836191Y-70553419D01*
X116836191Y-70553419D02*
X116836191Y-70362943D01*
X116836191Y-70362943D02*
X116788572Y-70273657D01*
X116788572Y-70273657D02*
X116693333Y-70190324D01*
X116693333Y-70190324D02*
X116502857Y-70166514D01*
X116502857Y-70166514D02*
X116169524Y-70208181D01*
X116169524Y-70208181D02*
X115979048Y-70279609D01*
X115979048Y-70279609D02*
X115883810Y-70386752D01*
X115883810Y-70386752D02*
X115836191Y-70487943D01*
X115836191Y-71249847D02*
X116836191Y-71362943D01*
X116836191Y-71362943D02*
X116121905Y-71642704D01*
X116121905Y-71642704D02*
X116836191Y-71743895D01*
X116836191Y-71743895D02*
X115836191Y-72106990D01*
X116836191Y-72362942D02*
X115836191Y-72487942D01*
X115836191Y-72487942D02*
X116836191Y-72934371D01*
X116836191Y-72934371D02*
X115836191Y-73059371D01*
X123028570Y-45955485D02*
X122942856Y-45984057D01*
X122942856Y-45984057D02*
X122914285Y-46012628D01*
X122914285Y-46012628D02*
X122885713Y-46069771D01*
X122885713Y-46069771D02*
X122885713Y-46155485D01*
X122885713Y-46155485D02*
X122914285Y-46212628D01*
X122914285Y-46212628D02*
X122942856Y-46241200D01*
X122942856Y-46241200D02*
X122999999Y-46269771D01*
X122999999Y-46269771D02*
X123228570Y-46269771D01*
X123228570Y-46269771D02*
X123228570Y-45669771D01*
X123228570Y-45669771D02*
X123028570Y-45669771D01*
X123028570Y-45669771D02*
X122971428Y-45698342D01*
X122971428Y-45698342D02*
X122942856Y-45726914D01*
X122942856Y-45726914D02*
X122914285Y-45784057D01*
X122914285Y-45784057D02*
X122914285Y-45841200D01*
X122914285Y-45841200D02*
X122942856Y-45898342D01*
X122942856Y-45898342D02*
X122971428Y-45926914D01*
X122971428Y-45926914D02*
X123028570Y-45955485D01*
X123028570Y-45955485D02*
X123228570Y-45955485D01*
X122628570Y-46041200D02*
X122171428Y-46041200D01*
X122399999Y-46269771D02*
X122399999Y-45812628D01*
X124766666Y-83154819D02*
X124195238Y-83154819D01*
X124480952Y-84154819D02*
X124480952Y-83154819D01*
X123671428Y-83154819D02*
X123480952Y-83154819D01*
X123480952Y-83154819D02*
X123385714Y-83202438D01*
X123385714Y-83202438D02*
X123290476Y-83297676D01*
X123290476Y-83297676D02*
X123242857Y-83488152D01*
X123242857Y-83488152D02*
X123242857Y-83821485D01*
X123242857Y-83821485D02*
X123290476Y-84011961D01*
X123290476Y-84011961D02*
X123385714Y-84107200D01*
X123385714Y-84107200D02*
X123480952Y-84154819D01*
X123480952Y-84154819D02*
X123671428Y-84154819D01*
X123671428Y-84154819D02*
X123766666Y-84107200D01*
X123766666Y-84107200D02*
X123861904Y-84011961D01*
X123861904Y-84011961D02*
X123909523Y-83821485D01*
X123909523Y-83821485D02*
X123909523Y-83488152D01*
X123909523Y-83488152D02*
X123861904Y-83297676D01*
X123861904Y-83297676D02*
X123766666Y-83202438D01*
X123766666Y-83202438D02*
X123671428Y-83154819D01*
X122290476Y-83202438D02*
X122385714Y-83154819D01*
X122385714Y-83154819D02*
X122528571Y-83154819D01*
X122528571Y-83154819D02*
X122671428Y-83202438D01*
X122671428Y-83202438D02*
X122766666Y-83297676D01*
X122766666Y-83297676D02*
X122814285Y-83392914D01*
X122814285Y-83392914D02*
X122861904Y-83583390D01*
X122861904Y-83583390D02*
X122861904Y-83726247D01*
X122861904Y-83726247D02*
X122814285Y-83916723D01*
X122814285Y-83916723D02*
X122766666Y-84011961D01*
X122766666Y-84011961D02*
X122671428Y-84107200D01*
X122671428Y-84107200D02*
X122528571Y-84154819D01*
X122528571Y-84154819D02*
X122433333Y-84154819D01*
X122433333Y-84154819D02*
X122290476Y-84107200D01*
X122290476Y-84107200D02*
X122242857Y-84059580D01*
X122242857Y-84059580D02*
X122242857Y-83726247D01*
X122242857Y-83726247D02*
X122433333Y-83726247D01*
X121290476Y-83202438D02*
X121385714Y-83154819D01*
X121385714Y-83154819D02*
X121528571Y-83154819D01*
X121528571Y-83154819D02*
X121671428Y-83202438D01*
X121671428Y-83202438D02*
X121766666Y-83297676D01*
X121766666Y-83297676D02*
X121814285Y-83392914D01*
X121814285Y-83392914D02*
X121861904Y-83583390D01*
X121861904Y-83583390D02*
X121861904Y-83726247D01*
X121861904Y-83726247D02*
X121814285Y-83916723D01*
X121814285Y-83916723D02*
X121766666Y-84011961D01*
X121766666Y-84011961D02*
X121671428Y-84107200D01*
X121671428Y-84107200D02*
X121528571Y-84154819D01*
X121528571Y-84154819D02*
X121433333Y-84154819D01*
X121433333Y-84154819D02*
X121290476Y-84107200D01*
X121290476Y-84107200D02*
X121242857Y-84059580D01*
X121242857Y-84059580D02*
X121242857Y-83726247D01*
X121242857Y-83726247D02*
X121433333Y-83726247D01*
X120338095Y-84154819D02*
X120814285Y-84154819D01*
X120814285Y-84154819D02*
X120814285Y-83154819D01*
X120004761Y-83631009D02*
X119671428Y-83631009D01*
X119528571Y-84154819D02*
X120004761Y-84154819D01*
X120004761Y-84154819D02*
X120004761Y-83154819D01*
X120004761Y-83154819D02*
X119528571Y-83154819D01*
D12*
X33102508Y-40806380D02*
X32973937Y-40849237D01*
X32973937Y-40849237D02*
X32759651Y-40849237D01*
X32759651Y-40849237D02*
X32673937Y-40806380D01*
X32673937Y-40806380D02*
X32631079Y-40763522D01*
X32631079Y-40763522D02*
X32588222Y-40677808D01*
X32588222Y-40677808D02*
X32588222Y-40592094D01*
X32588222Y-40592094D02*
X32631079Y-40506380D01*
X32631079Y-40506380D02*
X32673937Y-40463522D01*
X32673937Y-40463522D02*
X32759651Y-40420665D01*
X32759651Y-40420665D02*
X32931079Y-40377808D01*
X32931079Y-40377808D02*
X33016794Y-40334951D01*
X33016794Y-40334951D02*
X33059651Y-40292094D01*
X33059651Y-40292094D02*
X33102508Y-40206380D01*
X33102508Y-40206380D02*
X33102508Y-40120665D01*
X33102508Y-40120665D02*
X33059651Y-40034951D01*
X33059651Y-40034951D02*
X33016794Y-39992094D01*
X33016794Y-39992094D02*
X32931079Y-39949237D01*
X32931079Y-39949237D02*
X32716794Y-39949237D01*
X32716794Y-39949237D02*
X32588222Y-39992094D01*
X32288222Y-39949237D02*
X32073936Y-40849237D01*
X32073936Y-40849237D02*
X31902508Y-40206380D01*
X31902508Y-40206380D02*
X31731079Y-40849237D01*
X31731079Y-40849237D02*
X31516794Y-39949237D01*
X31216794Y-40034951D02*
X31173937Y-39992094D01*
X31173937Y-39992094D02*
X31088223Y-39949237D01*
X31088223Y-39949237D02*
X30873937Y-39949237D01*
X30873937Y-39949237D02*
X30788223Y-39992094D01*
X30788223Y-39992094D02*
X30745365Y-40034951D01*
X30745365Y-40034951D02*
X30702508Y-40120665D01*
X30702508Y-40120665D02*
X30702508Y-40206380D01*
X30702508Y-40206380D02*
X30745365Y-40334951D01*
X30745365Y-40334951D02*
X31259651Y-40849237D01*
X31259651Y-40849237D02*
X30702508Y-40849237D01*
X51102508Y-28806380D02*
X50973937Y-28849237D01*
X50973937Y-28849237D02*
X50759651Y-28849237D01*
X50759651Y-28849237D02*
X50673937Y-28806380D01*
X50673937Y-28806380D02*
X50631079Y-28763522D01*
X50631079Y-28763522D02*
X50588222Y-28677808D01*
X50588222Y-28677808D02*
X50588222Y-28592094D01*
X50588222Y-28592094D02*
X50631079Y-28506380D01*
X50631079Y-28506380D02*
X50673937Y-28463522D01*
X50673937Y-28463522D02*
X50759651Y-28420665D01*
X50759651Y-28420665D02*
X50931079Y-28377808D01*
X50931079Y-28377808D02*
X51016794Y-28334951D01*
X51016794Y-28334951D02*
X51059651Y-28292094D01*
X51059651Y-28292094D02*
X51102508Y-28206380D01*
X51102508Y-28206380D02*
X51102508Y-28120665D01*
X51102508Y-28120665D02*
X51059651Y-28034951D01*
X51059651Y-28034951D02*
X51016794Y-27992094D01*
X51016794Y-27992094D02*
X50931079Y-27949237D01*
X50931079Y-27949237D02*
X50716794Y-27949237D01*
X50716794Y-27949237D02*
X50588222Y-27992094D01*
X50288222Y-27949237D02*
X50073936Y-28849237D01*
X50073936Y-28849237D02*
X49902508Y-28206380D01*
X49902508Y-28206380D02*
X49731079Y-28849237D01*
X49731079Y-28849237D02*
X49516794Y-27949237D01*
X49259651Y-27949237D02*
X48702508Y-27949237D01*
X48702508Y-27949237D02*
X49002508Y-28292094D01*
X49002508Y-28292094D02*
X48873937Y-28292094D01*
X48873937Y-28292094D02*
X48788223Y-28334951D01*
X48788223Y-28334951D02*
X48745365Y-28377808D01*
X48745365Y-28377808D02*
X48702508Y-28463522D01*
X48702508Y-28463522D02*
X48702508Y-28677808D01*
X48702508Y-28677808D02*
X48745365Y-28763522D01*
X48745365Y-28763522D02*
X48788223Y-28806380D01*
X48788223Y-28806380D02*
X48873937Y-28849237D01*
X48873937Y-28849237D02*
X49131080Y-28849237D01*
X49131080Y-28849237D02*
X49216794Y-28806380D01*
X49216794Y-28806380D02*
X49259651Y-28763522D01*
X69102508Y-21806380D02*
X68973937Y-21849237D01*
X68973937Y-21849237D02*
X68759651Y-21849237D01*
X68759651Y-21849237D02*
X68673937Y-21806380D01*
X68673937Y-21806380D02*
X68631079Y-21763522D01*
X68631079Y-21763522D02*
X68588222Y-21677808D01*
X68588222Y-21677808D02*
X68588222Y-21592094D01*
X68588222Y-21592094D02*
X68631079Y-21506380D01*
X68631079Y-21506380D02*
X68673937Y-21463522D01*
X68673937Y-21463522D02*
X68759651Y-21420665D01*
X68759651Y-21420665D02*
X68931079Y-21377808D01*
X68931079Y-21377808D02*
X69016794Y-21334951D01*
X69016794Y-21334951D02*
X69059651Y-21292094D01*
X69059651Y-21292094D02*
X69102508Y-21206380D01*
X69102508Y-21206380D02*
X69102508Y-21120665D01*
X69102508Y-21120665D02*
X69059651Y-21034951D01*
X69059651Y-21034951D02*
X69016794Y-20992094D01*
X69016794Y-20992094D02*
X68931079Y-20949237D01*
X68931079Y-20949237D02*
X68716794Y-20949237D01*
X68716794Y-20949237D02*
X68588222Y-20992094D01*
X68288222Y-20949237D02*
X68073936Y-21849237D01*
X68073936Y-21849237D02*
X67902508Y-21206380D01*
X67902508Y-21206380D02*
X67731079Y-21849237D01*
X67731079Y-21849237D02*
X67516794Y-20949237D01*
X66788223Y-21249237D02*
X66788223Y-21849237D01*
X67002508Y-20906380D02*
X67216794Y-21549237D01*
X67216794Y-21549237D02*
X66659651Y-21549237D01*
X87102508Y-27306380D02*
X86973937Y-27349237D01*
X86973937Y-27349237D02*
X86759651Y-27349237D01*
X86759651Y-27349237D02*
X86673937Y-27306380D01*
X86673937Y-27306380D02*
X86631079Y-27263522D01*
X86631079Y-27263522D02*
X86588222Y-27177808D01*
X86588222Y-27177808D02*
X86588222Y-27092094D01*
X86588222Y-27092094D02*
X86631079Y-27006380D01*
X86631079Y-27006380D02*
X86673937Y-26963522D01*
X86673937Y-26963522D02*
X86759651Y-26920665D01*
X86759651Y-26920665D02*
X86931079Y-26877808D01*
X86931079Y-26877808D02*
X87016794Y-26834951D01*
X87016794Y-26834951D02*
X87059651Y-26792094D01*
X87059651Y-26792094D02*
X87102508Y-26706380D01*
X87102508Y-26706380D02*
X87102508Y-26620665D01*
X87102508Y-26620665D02*
X87059651Y-26534951D01*
X87059651Y-26534951D02*
X87016794Y-26492094D01*
X87016794Y-26492094D02*
X86931079Y-26449237D01*
X86931079Y-26449237D02*
X86716794Y-26449237D01*
X86716794Y-26449237D02*
X86588222Y-26492094D01*
X86288222Y-26449237D02*
X86073936Y-27349237D01*
X86073936Y-27349237D02*
X85902508Y-26706380D01*
X85902508Y-26706380D02*
X85731079Y-27349237D01*
X85731079Y-27349237D02*
X85516794Y-26449237D01*
X84745365Y-26449237D02*
X85173937Y-26449237D01*
X85173937Y-26449237D02*
X85216794Y-26877808D01*
X85216794Y-26877808D02*
X85173937Y-26834951D01*
X85173937Y-26834951D02*
X85088223Y-26792094D01*
X85088223Y-26792094D02*
X84873937Y-26792094D01*
X84873937Y-26792094D02*
X84788223Y-26834951D01*
X84788223Y-26834951D02*
X84745365Y-26877808D01*
X84745365Y-26877808D02*
X84702508Y-26963522D01*
X84702508Y-26963522D02*
X84702508Y-27177808D01*
X84702508Y-27177808D02*
X84745365Y-27263522D01*
X84745365Y-27263522D02*
X84788223Y-27306380D01*
X84788223Y-27306380D02*
X84873937Y-27349237D01*
X84873937Y-27349237D02*
X85088223Y-27349237D01*
X85088223Y-27349237D02*
X85173937Y-27306380D01*
X85173937Y-27306380D02*
X85216794Y-27263522D01*
X105102508Y-29806380D02*
X104973937Y-29849237D01*
X104973937Y-29849237D02*
X104759651Y-29849237D01*
X104759651Y-29849237D02*
X104673937Y-29806380D01*
X104673937Y-29806380D02*
X104631079Y-29763522D01*
X104631079Y-29763522D02*
X104588222Y-29677808D01*
X104588222Y-29677808D02*
X104588222Y-29592094D01*
X104588222Y-29592094D02*
X104631079Y-29506380D01*
X104631079Y-29506380D02*
X104673937Y-29463522D01*
X104673937Y-29463522D02*
X104759651Y-29420665D01*
X104759651Y-29420665D02*
X104931079Y-29377808D01*
X104931079Y-29377808D02*
X105016794Y-29334951D01*
X105016794Y-29334951D02*
X105059651Y-29292094D01*
X105059651Y-29292094D02*
X105102508Y-29206380D01*
X105102508Y-29206380D02*
X105102508Y-29120665D01*
X105102508Y-29120665D02*
X105059651Y-29034951D01*
X105059651Y-29034951D02*
X105016794Y-28992094D01*
X105016794Y-28992094D02*
X104931079Y-28949237D01*
X104931079Y-28949237D02*
X104716794Y-28949237D01*
X104716794Y-28949237D02*
X104588222Y-28992094D01*
X104288222Y-28949237D02*
X104073936Y-29849237D01*
X104073936Y-29849237D02*
X103902508Y-29206380D01*
X103902508Y-29206380D02*
X103731079Y-29849237D01*
X103731079Y-29849237D02*
X103516794Y-28949237D01*
X102788223Y-28949237D02*
X102959651Y-28949237D01*
X102959651Y-28949237D02*
X103045365Y-28992094D01*
X103045365Y-28992094D02*
X103088223Y-29034951D01*
X103088223Y-29034951D02*
X103173937Y-29163522D01*
X103173937Y-29163522D02*
X103216794Y-29334951D01*
X103216794Y-29334951D02*
X103216794Y-29677808D01*
X103216794Y-29677808D02*
X103173937Y-29763522D01*
X103173937Y-29763522D02*
X103131080Y-29806380D01*
X103131080Y-29806380D02*
X103045365Y-29849237D01*
X103045365Y-29849237D02*
X102873937Y-29849237D01*
X102873937Y-29849237D02*
X102788223Y-29806380D01*
X102788223Y-29806380D02*
X102745365Y-29763522D01*
X102745365Y-29763522D02*
X102702508Y-29677808D01*
X102702508Y-29677808D02*
X102702508Y-29463522D01*
X102702508Y-29463522D02*
X102745365Y-29377808D01*
X102745365Y-29377808D02*
X102788223Y-29334951D01*
X102788223Y-29334951D02*
X102873937Y-29292094D01*
X102873937Y-29292094D02*
X103045365Y-29292094D01*
X103045365Y-29292094D02*
X103131080Y-29334951D01*
X103131080Y-29334951D02*
X103173937Y-29377808D01*
X103173937Y-29377808D02*
X103216794Y-29463522D01*
X33102508Y-57806380D02*
X32973937Y-57849237D01*
X32973937Y-57849237D02*
X32759651Y-57849237D01*
X32759651Y-57849237D02*
X32673937Y-57806380D01*
X32673937Y-57806380D02*
X32631079Y-57763522D01*
X32631079Y-57763522D02*
X32588222Y-57677808D01*
X32588222Y-57677808D02*
X32588222Y-57592094D01*
X32588222Y-57592094D02*
X32631079Y-57506380D01*
X32631079Y-57506380D02*
X32673937Y-57463522D01*
X32673937Y-57463522D02*
X32759651Y-57420665D01*
X32759651Y-57420665D02*
X32931079Y-57377808D01*
X32931079Y-57377808D02*
X33016794Y-57334951D01*
X33016794Y-57334951D02*
X33059651Y-57292094D01*
X33059651Y-57292094D02*
X33102508Y-57206380D01*
X33102508Y-57206380D02*
X33102508Y-57120665D01*
X33102508Y-57120665D02*
X33059651Y-57034951D01*
X33059651Y-57034951D02*
X33016794Y-56992094D01*
X33016794Y-56992094D02*
X32931079Y-56949237D01*
X32931079Y-56949237D02*
X32716794Y-56949237D01*
X32716794Y-56949237D02*
X32588222Y-56992094D01*
X32288222Y-56949237D02*
X32073936Y-57849237D01*
X32073936Y-57849237D02*
X31902508Y-57206380D01*
X31902508Y-57206380D02*
X31731079Y-57849237D01*
X31731079Y-57849237D02*
X31516794Y-56949237D01*
X31045365Y-57334951D02*
X31131080Y-57292094D01*
X31131080Y-57292094D02*
X31173937Y-57249237D01*
X31173937Y-57249237D02*
X31216794Y-57163522D01*
X31216794Y-57163522D02*
X31216794Y-57120665D01*
X31216794Y-57120665D02*
X31173937Y-57034951D01*
X31173937Y-57034951D02*
X31131080Y-56992094D01*
X31131080Y-56992094D02*
X31045365Y-56949237D01*
X31045365Y-56949237D02*
X30873937Y-56949237D01*
X30873937Y-56949237D02*
X30788223Y-56992094D01*
X30788223Y-56992094D02*
X30745365Y-57034951D01*
X30745365Y-57034951D02*
X30702508Y-57120665D01*
X30702508Y-57120665D02*
X30702508Y-57163522D01*
X30702508Y-57163522D02*
X30745365Y-57249237D01*
X30745365Y-57249237D02*
X30788223Y-57292094D01*
X30788223Y-57292094D02*
X30873937Y-57334951D01*
X30873937Y-57334951D02*
X31045365Y-57334951D01*
X31045365Y-57334951D02*
X31131080Y-57377808D01*
X31131080Y-57377808D02*
X31173937Y-57420665D01*
X31173937Y-57420665D02*
X31216794Y-57506380D01*
X31216794Y-57506380D02*
X31216794Y-57677808D01*
X31216794Y-57677808D02*
X31173937Y-57763522D01*
X31173937Y-57763522D02*
X31131080Y-57806380D01*
X31131080Y-57806380D02*
X31045365Y-57849237D01*
X31045365Y-57849237D02*
X30873937Y-57849237D01*
X30873937Y-57849237D02*
X30788223Y-57806380D01*
X30788223Y-57806380D02*
X30745365Y-57763522D01*
X30745365Y-57763522D02*
X30702508Y-57677808D01*
X30702508Y-57677808D02*
X30702508Y-57506380D01*
X30702508Y-57506380D02*
X30745365Y-57420665D01*
X30745365Y-57420665D02*
X30788223Y-57377808D01*
X30788223Y-57377808D02*
X30873937Y-57334951D01*
X51102508Y-45780380D02*
X50973937Y-45823237D01*
X50973937Y-45823237D02*
X50759651Y-45823237D01*
X50759651Y-45823237D02*
X50673937Y-45780380D01*
X50673937Y-45780380D02*
X50631079Y-45737522D01*
X50631079Y-45737522D02*
X50588222Y-45651808D01*
X50588222Y-45651808D02*
X50588222Y-45566094D01*
X50588222Y-45566094D02*
X50631079Y-45480380D01*
X50631079Y-45480380D02*
X50673937Y-45437522D01*
X50673937Y-45437522D02*
X50759651Y-45394665D01*
X50759651Y-45394665D02*
X50931079Y-45351808D01*
X50931079Y-45351808D02*
X51016794Y-45308951D01*
X51016794Y-45308951D02*
X51059651Y-45266094D01*
X51059651Y-45266094D02*
X51102508Y-45180380D01*
X51102508Y-45180380D02*
X51102508Y-45094665D01*
X51102508Y-45094665D02*
X51059651Y-45008951D01*
X51059651Y-45008951D02*
X51016794Y-44966094D01*
X51016794Y-44966094D02*
X50931079Y-44923237D01*
X50931079Y-44923237D02*
X50716794Y-44923237D01*
X50716794Y-44923237D02*
X50588222Y-44966094D01*
X50288222Y-44923237D02*
X50073936Y-45823237D01*
X50073936Y-45823237D02*
X49902508Y-45180380D01*
X49902508Y-45180380D02*
X49731079Y-45823237D01*
X49731079Y-45823237D02*
X49516794Y-44923237D01*
X49131080Y-45823237D02*
X48959651Y-45823237D01*
X48959651Y-45823237D02*
X48873937Y-45780380D01*
X48873937Y-45780380D02*
X48831080Y-45737522D01*
X48831080Y-45737522D02*
X48745365Y-45608951D01*
X48745365Y-45608951D02*
X48702508Y-45437522D01*
X48702508Y-45437522D02*
X48702508Y-45094665D01*
X48702508Y-45094665D02*
X48745365Y-45008951D01*
X48745365Y-45008951D02*
X48788223Y-44966094D01*
X48788223Y-44966094D02*
X48873937Y-44923237D01*
X48873937Y-44923237D02*
X49045365Y-44923237D01*
X49045365Y-44923237D02*
X49131080Y-44966094D01*
X49131080Y-44966094D02*
X49173937Y-45008951D01*
X49173937Y-45008951D02*
X49216794Y-45094665D01*
X49216794Y-45094665D02*
X49216794Y-45308951D01*
X49216794Y-45308951D02*
X49173937Y-45394665D01*
X49173937Y-45394665D02*
X49131080Y-45437522D01*
X49131080Y-45437522D02*
X49045365Y-45480380D01*
X49045365Y-45480380D02*
X48873937Y-45480380D01*
X48873937Y-45480380D02*
X48788223Y-45437522D01*
X48788223Y-45437522D02*
X48745365Y-45394665D01*
X48745365Y-45394665D02*
X48702508Y-45308951D01*
X69102508Y-38922380D02*
X68973937Y-38965237D01*
X68973937Y-38965237D02*
X68759651Y-38965237D01*
X68759651Y-38965237D02*
X68673937Y-38922380D01*
X68673937Y-38922380D02*
X68631079Y-38879522D01*
X68631079Y-38879522D02*
X68588222Y-38793808D01*
X68588222Y-38793808D02*
X68588222Y-38708094D01*
X68588222Y-38708094D02*
X68631079Y-38622380D01*
X68631079Y-38622380D02*
X68673937Y-38579522D01*
X68673937Y-38579522D02*
X68759651Y-38536665D01*
X68759651Y-38536665D02*
X68931079Y-38493808D01*
X68931079Y-38493808D02*
X69016794Y-38450951D01*
X69016794Y-38450951D02*
X69059651Y-38408094D01*
X69059651Y-38408094D02*
X69102508Y-38322380D01*
X69102508Y-38322380D02*
X69102508Y-38236665D01*
X69102508Y-38236665D02*
X69059651Y-38150951D01*
X69059651Y-38150951D02*
X69016794Y-38108094D01*
X69016794Y-38108094D02*
X68931079Y-38065237D01*
X68931079Y-38065237D02*
X68716794Y-38065237D01*
X68716794Y-38065237D02*
X68588222Y-38108094D01*
X68288222Y-38065237D02*
X68073936Y-38965237D01*
X68073936Y-38965237D02*
X67902508Y-38322380D01*
X67902508Y-38322380D02*
X67731079Y-38965237D01*
X67731079Y-38965237D02*
X67516794Y-38065237D01*
X66702508Y-38965237D02*
X67216794Y-38965237D01*
X66959651Y-38965237D02*
X66959651Y-38065237D01*
X66959651Y-38065237D02*
X67045365Y-38193808D01*
X67045365Y-38193808D02*
X67131080Y-38279522D01*
X67131080Y-38279522D02*
X67216794Y-38322380D01*
X66145365Y-38065237D02*
X66059651Y-38065237D01*
X66059651Y-38065237D02*
X65973937Y-38108094D01*
X65973937Y-38108094D02*
X65931080Y-38150951D01*
X65931080Y-38150951D02*
X65888222Y-38236665D01*
X65888222Y-38236665D02*
X65845365Y-38408094D01*
X65845365Y-38408094D02*
X65845365Y-38622380D01*
X65845365Y-38622380D02*
X65888222Y-38793808D01*
X65888222Y-38793808D02*
X65931080Y-38879522D01*
X65931080Y-38879522D02*
X65973937Y-38922380D01*
X65973937Y-38922380D02*
X66059651Y-38965237D01*
X66059651Y-38965237D02*
X66145365Y-38965237D01*
X66145365Y-38965237D02*
X66231080Y-38922380D01*
X66231080Y-38922380D02*
X66273937Y-38879522D01*
X66273937Y-38879522D02*
X66316794Y-38793808D01*
X66316794Y-38793808D02*
X66359651Y-38622380D01*
X66359651Y-38622380D02*
X66359651Y-38408094D01*
X66359651Y-38408094D02*
X66316794Y-38236665D01*
X66316794Y-38236665D02*
X66273937Y-38150951D01*
X66273937Y-38150951D02*
X66231080Y-38108094D01*
X66231080Y-38108094D02*
X66145365Y-38065237D01*
X87102508Y-44256380D02*
X86973937Y-44299237D01*
X86973937Y-44299237D02*
X86759651Y-44299237D01*
X86759651Y-44299237D02*
X86673937Y-44256380D01*
X86673937Y-44256380D02*
X86631079Y-44213522D01*
X86631079Y-44213522D02*
X86588222Y-44127808D01*
X86588222Y-44127808D02*
X86588222Y-44042094D01*
X86588222Y-44042094D02*
X86631079Y-43956380D01*
X86631079Y-43956380D02*
X86673937Y-43913522D01*
X86673937Y-43913522D02*
X86759651Y-43870665D01*
X86759651Y-43870665D02*
X86931079Y-43827808D01*
X86931079Y-43827808D02*
X87016794Y-43784951D01*
X87016794Y-43784951D02*
X87059651Y-43742094D01*
X87059651Y-43742094D02*
X87102508Y-43656380D01*
X87102508Y-43656380D02*
X87102508Y-43570665D01*
X87102508Y-43570665D02*
X87059651Y-43484951D01*
X87059651Y-43484951D02*
X87016794Y-43442094D01*
X87016794Y-43442094D02*
X86931079Y-43399237D01*
X86931079Y-43399237D02*
X86716794Y-43399237D01*
X86716794Y-43399237D02*
X86588222Y-43442094D01*
X86288222Y-43399237D02*
X86073936Y-44299237D01*
X86073936Y-44299237D02*
X85902508Y-43656380D01*
X85902508Y-43656380D02*
X85731079Y-44299237D01*
X85731079Y-44299237D02*
X85516794Y-43399237D01*
X84702508Y-44299237D02*
X85216794Y-44299237D01*
X84959651Y-44299237D02*
X84959651Y-43399237D01*
X84959651Y-43399237D02*
X85045365Y-43527808D01*
X85045365Y-43527808D02*
X85131080Y-43613522D01*
X85131080Y-43613522D02*
X85216794Y-43656380D01*
X83845365Y-44299237D02*
X84359651Y-44299237D01*
X84102508Y-44299237D02*
X84102508Y-43399237D01*
X84102508Y-43399237D02*
X84188222Y-43527808D01*
X84188222Y-43527808D02*
X84273937Y-43613522D01*
X84273937Y-43613522D02*
X84359651Y-43656380D01*
X105082508Y-46796380D02*
X104953937Y-46839237D01*
X104953937Y-46839237D02*
X104739651Y-46839237D01*
X104739651Y-46839237D02*
X104653937Y-46796380D01*
X104653937Y-46796380D02*
X104611079Y-46753522D01*
X104611079Y-46753522D02*
X104568222Y-46667808D01*
X104568222Y-46667808D02*
X104568222Y-46582094D01*
X104568222Y-46582094D02*
X104611079Y-46496380D01*
X104611079Y-46496380D02*
X104653937Y-46453522D01*
X104653937Y-46453522D02*
X104739651Y-46410665D01*
X104739651Y-46410665D02*
X104911079Y-46367808D01*
X104911079Y-46367808D02*
X104996794Y-46324951D01*
X104996794Y-46324951D02*
X105039651Y-46282094D01*
X105039651Y-46282094D02*
X105082508Y-46196380D01*
X105082508Y-46196380D02*
X105082508Y-46110665D01*
X105082508Y-46110665D02*
X105039651Y-46024951D01*
X105039651Y-46024951D02*
X104996794Y-45982094D01*
X104996794Y-45982094D02*
X104911079Y-45939237D01*
X104911079Y-45939237D02*
X104696794Y-45939237D01*
X104696794Y-45939237D02*
X104568222Y-45982094D01*
X104268222Y-45939237D02*
X104053936Y-46839237D01*
X104053936Y-46839237D02*
X103882508Y-46196380D01*
X103882508Y-46196380D02*
X103711079Y-46839237D01*
X103711079Y-46839237D02*
X103496794Y-45939237D01*
X102682508Y-46839237D02*
X103196794Y-46839237D01*
X102939651Y-46839237D02*
X102939651Y-45939237D01*
X102939651Y-45939237D02*
X103025365Y-46067808D01*
X103025365Y-46067808D02*
X103111080Y-46153522D01*
X103111080Y-46153522D02*
X103196794Y-46196380D01*
X102339651Y-46024951D02*
X102296794Y-45982094D01*
X102296794Y-45982094D02*
X102211080Y-45939237D01*
X102211080Y-45939237D02*
X101996794Y-45939237D01*
X101996794Y-45939237D02*
X101911080Y-45982094D01*
X101911080Y-45982094D02*
X101868222Y-46024951D01*
X101868222Y-46024951D02*
X101825365Y-46110665D01*
X101825365Y-46110665D02*
X101825365Y-46196380D01*
X101825365Y-46196380D02*
X101868222Y-46324951D01*
X101868222Y-46324951D02*
X102382508Y-46839237D01*
X102382508Y-46839237D02*
X101825365Y-46839237D01*
X33102508Y-74806380D02*
X32973937Y-74849237D01*
X32973937Y-74849237D02*
X32759651Y-74849237D01*
X32759651Y-74849237D02*
X32673937Y-74806380D01*
X32673937Y-74806380D02*
X32631079Y-74763522D01*
X32631079Y-74763522D02*
X32588222Y-74677808D01*
X32588222Y-74677808D02*
X32588222Y-74592094D01*
X32588222Y-74592094D02*
X32631079Y-74506380D01*
X32631079Y-74506380D02*
X32673937Y-74463522D01*
X32673937Y-74463522D02*
X32759651Y-74420665D01*
X32759651Y-74420665D02*
X32931079Y-74377808D01*
X32931079Y-74377808D02*
X33016794Y-74334951D01*
X33016794Y-74334951D02*
X33059651Y-74292094D01*
X33059651Y-74292094D02*
X33102508Y-74206380D01*
X33102508Y-74206380D02*
X33102508Y-74120665D01*
X33102508Y-74120665D02*
X33059651Y-74034951D01*
X33059651Y-74034951D02*
X33016794Y-73992094D01*
X33016794Y-73992094D02*
X32931079Y-73949237D01*
X32931079Y-73949237D02*
X32716794Y-73949237D01*
X32716794Y-73949237D02*
X32588222Y-73992094D01*
X32288222Y-73949237D02*
X32073936Y-74849237D01*
X32073936Y-74849237D02*
X31902508Y-74206380D01*
X31902508Y-74206380D02*
X31731079Y-74849237D01*
X31731079Y-74849237D02*
X31516794Y-73949237D01*
X30702508Y-74849237D02*
X31216794Y-74849237D01*
X30959651Y-74849237D02*
X30959651Y-73949237D01*
X30959651Y-73949237D02*
X31045365Y-74077808D01*
X31045365Y-74077808D02*
X31131080Y-74163522D01*
X31131080Y-74163522D02*
X31216794Y-74206380D01*
X29931080Y-74249237D02*
X29931080Y-74849237D01*
X30145365Y-73906380D02*
X30359651Y-74549237D01*
X30359651Y-74549237D02*
X29802508Y-74549237D01*
X51102508Y-62798380D02*
X50973937Y-62841237D01*
X50973937Y-62841237D02*
X50759651Y-62841237D01*
X50759651Y-62841237D02*
X50673937Y-62798380D01*
X50673937Y-62798380D02*
X50631079Y-62755522D01*
X50631079Y-62755522D02*
X50588222Y-62669808D01*
X50588222Y-62669808D02*
X50588222Y-62584094D01*
X50588222Y-62584094D02*
X50631079Y-62498380D01*
X50631079Y-62498380D02*
X50673937Y-62455522D01*
X50673937Y-62455522D02*
X50759651Y-62412665D01*
X50759651Y-62412665D02*
X50931079Y-62369808D01*
X50931079Y-62369808D02*
X51016794Y-62326951D01*
X51016794Y-62326951D02*
X51059651Y-62284094D01*
X51059651Y-62284094D02*
X51102508Y-62198380D01*
X51102508Y-62198380D02*
X51102508Y-62112665D01*
X51102508Y-62112665D02*
X51059651Y-62026951D01*
X51059651Y-62026951D02*
X51016794Y-61984094D01*
X51016794Y-61984094D02*
X50931079Y-61941237D01*
X50931079Y-61941237D02*
X50716794Y-61941237D01*
X50716794Y-61941237D02*
X50588222Y-61984094D01*
X50288222Y-61941237D02*
X50073936Y-62841237D01*
X50073936Y-62841237D02*
X49902508Y-62198380D01*
X49902508Y-62198380D02*
X49731079Y-62841237D01*
X49731079Y-62841237D02*
X49516794Y-61941237D01*
X48702508Y-62841237D02*
X49216794Y-62841237D01*
X48959651Y-62841237D02*
X48959651Y-61941237D01*
X48959651Y-61941237D02*
X49045365Y-62069808D01*
X49045365Y-62069808D02*
X49131080Y-62155522D01*
X49131080Y-62155522D02*
X49216794Y-62198380D01*
X47888222Y-61941237D02*
X48316794Y-61941237D01*
X48316794Y-61941237D02*
X48359651Y-62369808D01*
X48359651Y-62369808D02*
X48316794Y-62326951D01*
X48316794Y-62326951D02*
X48231080Y-62284094D01*
X48231080Y-62284094D02*
X48016794Y-62284094D01*
X48016794Y-62284094D02*
X47931080Y-62326951D01*
X47931080Y-62326951D02*
X47888222Y-62369808D01*
X47888222Y-62369808D02*
X47845365Y-62455522D01*
X47845365Y-62455522D02*
X47845365Y-62669808D01*
X47845365Y-62669808D02*
X47888222Y-62755522D01*
X47888222Y-62755522D02*
X47931080Y-62798380D01*
X47931080Y-62798380D02*
X48016794Y-62841237D01*
X48016794Y-62841237D02*
X48231080Y-62841237D01*
X48231080Y-62841237D02*
X48316794Y-62798380D01*
X48316794Y-62798380D02*
X48359651Y-62755522D01*
X69102508Y-55940380D02*
X68973937Y-55983237D01*
X68973937Y-55983237D02*
X68759651Y-55983237D01*
X68759651Y-55983237D02*
X68673937Y-55940380D01*
X68673937Y-55940380D02*
X68631079Y-55897522D01*
X68631079Y-55897522D02*
X68588222Y-55811808D01*
X68588222Y-55811808D02*
X68588222Y-55726094D01*
X68588222Y-55726094D02*
X68631079Y-55640380D01*
X68631079Y-55640380D02*
X68673937Y-55597522D01*
X68673937Y-55597522D02*
X68759651Y-55554665D01*
X68759651Y-55554665D02*
X68931079Y-55511808D01*
X68931079Y-55511808D02*
X69016794Y-55468951D01*
X69016794Y-55468951D02*
X69059651Y-55426094D01*
X69059651Y-55426094D02*
X69102508Y-55340380D01*
X69102508Y-55340380D02*
X69102508Y-55254665D01*
X69102508Y-55254665D02*
X69059651Y-55168951D01*
X69059651Y-55168951D02*
X69016794Y-55126094D01*
X69016794Y-55126094D02*
X68931079Y-55083237D01*
X68931079Y-55083237D02*
X68716794Y-55083237D01*
X68716794Y-55083237D02*
X68588222Y-55126094D01*
X68288222Y-55083237D02*
X68073936Y-55983237D01*
X68073936Y-55983237D02*
X67902508Y-55340380D01*
X67902508Y-55340380D02*
X67731079Y-55983237D01*
X67731079Y-55983237D02*
X67516794Y-55083237D01*
X66702508Y-55983237D02*
X67216794Y-55983237D01*
X66959651Y-55983237D02*
X66959651Y-55083237D01*
X66959651Y-55083237D02*
X67045365Y-55211808D01*
X67045365Y-55211808D02*
X67131080Y-55297522D01*
X67131080Y-55297522D02*
X67216794Y-55340380D01*
X65931080Y-55083237D02*
X66102508Y-55083237D01*
X66102508Y-55083237D02*
X66188222Y-55126094D01*
X66188222Y-55126094D02*
X66231080Y-55168951D01*
X66231080Y-55168951D02*
X66316794Y-55297522D01*
X66316794Y-55297522D02*
X66359651Y-55468951D01*
X66359651Y-55468951D02*
X66359651Y-55811808D01*
X66359651Y-55811808D02*
X66316794Y-55897522D01*
X66316794Y-55897522D02*
X66273937Y-55940380D01*
X66273937Y-55940380D02*
X66188222Y-55983237D01*
X66188222Y-55983237D02*
X66016794Y-55983237D01*
X66016794Y-55983237D02*
X65931080Y-55940380D01*
X65931080Y-55940380D02*
X65888222Y-55897522D01*
X65888222Y-55897522D02*
X65845365Y-55811808D01*
X65845365Y-55811808D02*
X65845365Y-55597522D01*
X65845365Y-55597522D02*
X65888222Y-55511808D01*
X65888222Y-55511808D02*
X65931080Y-55468951D01*
X65931080Y-55468951D02*
X66016794Y-55426094D01*
X66016794Y-55426094D02*
X66188222Y-55426094D01*
X66188222Y-55426094D02*
X66273937Y-55468951D01*
X66273937Y-55468951D02*
X66316794Y-55511808D01*
X66316794Y-55511808D02*
X66359651Y-55597522D01*
X87102508Y-61274380D02*
X86973937Y-61317237D01*
X86973937Y-61317237D02*
X86759651Y-61317237D01*
X86759651Y-61317237D02*
X86673937Y-61274380D01*
X86673937Y-61274380D02*
X86631079Y-61231522D01*
X86631079Y-61231522D02*
X86588222Y-61145808D01*
X86588222Y-61145808D02*
X86588222Y-61060094D01*
X86588222Y-61060094D02*
X86631079Y-60974380D01*
X86631079Y-60974380D02*
X86673937Y-60931522D01*
X86673937Y-60931522D02*
X86759651Y-60888665D01*
X86759651Y-60888665D02*
X86931079Y-60845808D01*
X86931079Y-60845808D02*
X87016794Y-60802951D01*
X87016794Y-60802951D02*
X87059651Y-60760094D01*
X87059651Y-60760094D02*
X87102508Y-60674380D01*
X87102508Y-60674380D02*
X87102508Y-60588665D01*
X87102508Y-60588665D02*
X87059651Y-60502951D01*
X87059651Y-60502951D02*
X87016794Y-60460094D01*
X87016794Y-60460094D02*
X86931079Y-60417237D01*
X86931079Y-60417237D02*
X86716794Y-60417237D01*
X86716794Y-60417237D02*
X86588222Y-60460094D01*
X86288222Y-60417237D02*
X86073936Y-61317237D01*
X86073936Y-61317237D02*
X85902508Y-60674380D01*
X85902508Y-60674380D02*
X85731079Y-61317237D01*
X85731079Y-61317237D02*
X85516794Y-60417237D01*
X84702508Y-61317237D02*
X85216794Y-61317237D01*
X84959651Y-61317237D02*
X84959651Y-60417237D01*
X84959651Y-60417237D02*
X85045365Y-60545808D01*
X85045365Y-60545808D02*
X85131080Y-60631522D01*
X85131080Y-60631522D02*
X85216794Y-60674380D01*
X84402508Y-60417237D02*
X83802508Y-60417237D01*
X83802508Y-60417237D02*
X84188222Y-61317237D01*
X105082508Y-63814380D02*
X104953937Y-63857237D01*
X104953937Y-63857237D02*
X104739651Y-63857237D01*
X104739651Y-63857237D02*
X104653937Y-63814380D01*
X104653937Y-63814380D02*
X104611079Y-63771522D01*
X104611079Y-63771522D02*
X104568222Y-63685808D01*
X104568222Y-63685808D02*
X104568222Y-63600094D01*
X104568222Y-63600094D02*
X104611079Y-63514380D01*
X104611079Y-63514380D02*
X104653937Y-63471522D01*
X104653937Y-63471522D02*
X104739651Y-63428665D01*
X104739651Y-63428665D02*
X104911079Y-63385808D01*
X104911079Y-63385808D02*
X104996794Y-63342951D01*
X104996794Y-63342951D02*
X105039651Y-63300094D01*
X105039651Y-63300094D02*
X105082508Y-63214380D01*
X105082508Y-63214380D02*
X105082508Y-63128665D01*
X105082508Y-63128665D02*
X105039651Y-63042951D01*
X105039651Y-63042951D02*
X104996794Y-63000094D01*
X104996794Y-63000094D02*
X104911079Y-62957237D01*
X104911079Y-62957237D02*
X104696794Y-62957237D01*
X104696794Y-62957237D02*
X104568222Y-63000094D01*
X104268222Y-62957237D02*
X104053936Y-63857237D01*
X104053936Y-63857237D02*
X103882508Y-63214380D01*
X103882508Y-63214380D02*
X103711079Y-63857237D01*
X103711079Y-63857237D02*
X103496794Y-62957237D01*
X102682508Y-63857237D02*
X103196794Y-63857237D01*
X102939651Y-63857237D02*
X102939651Y-62957237D01*
X102939651Y-62957237D02*
X103025365Y-63085808D01*
X103025365Y-63085808D02*
X103111080Y-63171522D01*
X103111080Y-63171522D02*
X103196794Y-63214380D01*
X102168222Y-63342951D02*
X102253937Y-63300094D01*
X102253937Y-63300094D02*
X102296794Y-63257237D01*
X102296794Y-63257237D02*
X102339651Y-63171522D01*
X102339651Y-63171522D02*
X102339651Y-63128665D01*
X102339651Y-63128665D02*
X102296794Y-63042951D01*
X102296794Y-63042951D02*
X102253937Y-63000094D01*
X102253937Y-63000094D02*
X102168222Y-62957237D01*
X102168222Y-62957237D02*
X101996794Y-62957237D01*
X101996794Y-62957237D02*
X101911080Y-63000094D01*
X101911080Y-63000094D02*
X101868222Y-63042951D01*
X101868222Y-63042951D02*
X101825365Y-63128665D01*
X101825365Y-63128665D02*
X101825365Y-63171522D01*
X101825365Y-63171522D02*
X101868222Y-63257237D01*
X101868222Y-63257237D02*
X101911080Y-63300094D01*
X101911080Y-63300094D02*
X101996794Y-63342951D01*
X101996794Y-63342951D02*
X102168222Y-63342951D01*
X102168222Y-63342951D02*
X102253937Y-63385808D01*
X102253937Y-63385808D02*
X102296794Y-63428665D01*
X102296794Y-63428665D02*
X102339651Y-63514380D01*
X102339651Y-63514380D02*
X102339651Y-63685808D01*
X102339651Y-63685808D02*
X102296794Y-63771522D01*
X102296794Y-63771522D02*
X102253937Y-63814380D01*
X102253937Y-63814380D02*
X102168222Y-63857237D01*
X102168222Y-63857237D02*
X101996794Y-63857237D01*
X101996794Y-63857237D02*
X101911080Y-63814380D01*
X101911080Y-63814380D02*
X101868222Y-63771522D01*
X101868222Y-63771522D02*
X101825365Y-63685808D01*
X101825365Y-63685808D02*
X101825365Y-63514380D01*
X101825365Y-63514380D02*
X101868222Y-63428665D01*
X101868222Y-63428665D02*
X101911080Y-63385808D01*
X101911080Y-63385808D02*
X101996794Y-63342951D01*
X103577788Y-98577909D02*
X103445013Y-98550739D01*
X103445013Y-98550739D02*
X103259436Y-98443596D01*
X103259436Y-98443596D02*
X103206634Y-98363623D01*
X103206634Y-98363623D02*
X103190947Y-98305079D01*
X103190947Y-98305079D02*
X103196689Y-98209420D01*
X103196689Y-98209420D02*
X103239546Y-98135189D01*
X103239546Y-98135189D02*
X103319518Y-98082387D01*
X103319518Y-98082387D02*
X103378062Y-98066700D01*
X103378062Y-98066700D02*
X103473722Y-98072442D01*
X103473722Y-98072442D02*
X103643612Y-98121041D01*
X103643612Y-98121041D02*
X103739271Y-98126783D01*
X103739271Y-98126783D02*
X103797815Y-98111096D01*
X103797815Y-98111096D02*
X103877788Y-98058294D01*
X103877788Y-98058294D02*
X103920645Y-97984063D01*
X103920645Y-97984063D02*
X103926386Y-97888404D01*
X103926386Y-97888404D02*
X103910700Y-97829860D01*
X103910700Y-97829860D02*
X103857898Y-97749887D01*
X103857898Y-97749887D02*
X103672321Y-97642744D01*
X103672321Y-97642744D02*
X103539546Y-97615574D01*
X103301167Y-97428458D02*
X102665590Y-98100738D01*
X102665590Y-98100738D02*
X102838557Y-97458294D01*
X102838557Y-97458294D02*
X102368667Y-97929310D01*
X102368667Y-97929310D02*
X102633090Y-97042744D01*
X102330426Y-96966975D02*
X102314739Y-96908431D01*
X102314739Y-96908431D02*
X102261937Y-96828459D01*
X102261937Y-96828459D02*
X102076360Y-96721316D01*
X102076360Y-96721316D02*
X101980700Y-96715574D01*
X101980700Y-96715574D02*
X101922157Y-96731261D01*
X101922157Y-96731261D02*
X101842184Y-96784063D01*
X101842184Y-96784063D02*
X101799327Y-96858294D01*
X101799327Y-96858294D02*
X101772157Y-96991068D01*
X101772157Y-96991068D02*
X101960398Y-97693596D01*
X101960398Y-97693596D02*
X101477898Y-97415024D01*
X101445398Y-96357030D02*
X101371168Y-96314173D01*
X101371168Y-96314173D02*
X101275508Y-96308431D01*
X101275508Y-96308431D02*
X101216964Y-96324118D01*
X101216964Y-96324118D02*
X101136992Y-96376920D01*
X101136992Y-96376920D02*
X101014162Y-96503953D01*
X101014162Y-96503953D02*
X100907019Y-96689530D01*
X100907019Y-96689530D02*
X100858420Y-96859420D01*
X100858420Y-96859420D02*
X100852679Y-96955079D01*
X100852679Y-96955079D02*
X100868365Y-97013623D01*
X100868365Y-97013623D02*
X100921168Y-97093596D01*
X100921168Y-97093596D02*
X100995398Y-97136453D01*
X100995398Y-97136453D02*
X101091058Y-97142195D01*
X101091058Y-97142195D02*
X101149602Y-97126508D01*
X101149602Y-97126508D02*
X101229574Y-97073706D01*
X101229574Y-97073706D02*
X101352404Y-96946673D01*
X101352404Y-96946673D02*
X101459547Y-96761096D01*
X101459547Y-96761096D02*
X101508145Y-96591206D01*
X101508145Y-96591206D02*
X101513887Y-96495546D01*
X101513887Y-96495546D02*
X101498200Y-96437003D01*
X101498200Y-96437003D02*
X101445398Y-96357030D01*
X86338220Y-92181124D02*
X86202938Y-92189244D01*
X86202938Y-92189244D02*
X85995954Y-92133783D01*
X85995954Y-92133783D02*
X85924252Y-92070202D01*
X85924252Y-92070202D02*
X85893948Y-92017713D01*
X85893948Y-92017713D02*
X85874735Y-91923827D01*
X85874735Y-91923827D02*
X85896920Y-91841033D01*
X85896920Y-91841033D02*
X85960501Y-91769332D01*
X85960501Y-91769332D02*
X86012990Y-91739027D01*
X86012990Y-91739027D02*
X86106876Y-91719815D01*
X86106876Y-91719815D02*
X86283556Y-91722787D01*
X86283556Y-91722787D02*
X86377441Y-91703575D01*
X86377441Y-91703575D02*
X86429931Y-91673270D01*
X86429931Y-91673270D02*
X86493512Y-91601569D01*
X86493512Y-91601569D02*
X86515696Y-91518775D01*
X86515696Y-91518775D02*
X86496484Y-91424889D01*
X86496484Y-91424889D02*
X86466179Y-91372400D01*
X86466179Y-91372400D02*
X86394478Y-91308819D01*
X86394478Y-91308819D02*
X86187494Y-91253358D01*
X86187494Y-91253358D02*
X86052211Y-91261478D01*
X85773526Y-91142435D02*
X85333604Y-91956307D01*
X85333604Y-91956307D02*
X85334401Y-91290986D01*
X85334401Y-91290986D02*
X85002430Y-91867569D01*
X85002430Y-91867569D02*
X85028383Y-90942775D01*
X84716421Y-90947923D02*
X84686116Y-90895434D01*
X84686116Y-90895434D02*
X84614415Y-90831852D01*
X84614415Y-90831852D02*
X84407431Y-90776391D01*
X84407431Y-90776391D02*
X84313545Y-90795603D01*
X84313545Y-90795603D02*
X84261056Y-90825908D01*
X84261056Y-90825908D02*
X84197475Y-90897609D01*
X84197475Y-90897609D02*
X84175290Y-90980403D01*
X84175290Y-90980403D02*
X84183410Y-91115686D01*
X84183410Y-91115686D02*
X84547065Y-91745555D01*
X84547065Y-91745555D02*
X84008906Y-91601355D01*
X83180970Y-91379510D02*
X83677732Y-91512617D01*
X83429351Y-91446064D02*
X83662288Y-90576731D01*
X83662288Y-90576731D02*
X83711805Y-90723106D01*
X83711805Y-90723106D02*
X83772414Y-90828084D01*
X83772414Y-90828084D02*
X83844115Y-90891665D01*
D10*
X117352381Y-84254819D02*
X117685714Y-83778628D01*
X117923809Y-84254819D02*
X117923809Y-83254819D01*
X117923809Y-83254819D02*
X117542857Y-83254819D01*
X117542857Y-83254819D02*
X117447619Y-83302438D01*
X117447619Y-83302438D02*
X117400000Y-83350057D01*
X117400000Y-83350057D02*
X117352381Y-83445295D01*
X117352381Y-83445295D02*
X117352381Y-83588152D01*
X117352381Y-83588152D02*
X117400000Y-83683390D01*
X117400000Y-83683390D02*
X117447619Y-83731009D01*
X117447619Y-83731009D02*
X117542857Y-83778628D01*
X117542857Y-83778628D02*
X117923809Y-83778628D01*
X116923809Y-83731009D02*
X116590476Y-83731009D01*
X116447619Y-84254819D02*
X116923809Y-84254819D01*
X116923809Y-84254819D02*
X116923809Y-83254819D01*
X116923809Y-83254819D02*
X116447619Y-83254819D01*
X116066666Y-84207200D02*
X115923809Y-84254819D01*
X115923809Y-84254819D02*
X115685714Y-84254819D01*
X115685714Y-84254819D02*
X115590476Y-84207200D01*
X115590476Y-84207200D02*
X115542857Y-84159580D01*
X115542857Y-84159580D02*
X115495238Y-84064342D01*
X115495238Y-84064342D02*
X115495238Y-83969104D01*
X115495238Y-83969104D02*
X115542857Y-83873866D01*
X115542857Y-83873866D02*
X115590476Y-83826247D01*
X115590476Y-83826247D02*
X115685714Y-83778628D01*
X115685714Y-83778628D02*
X115876190Y-83731009D01*
X115876190Y-83731009D02*
X115971428Y-83683390D01*
X115971428Y-83683390D02*
X116019047Y-83635771D01*
X116019047Y-83635771D02*
X116066666Y-83540533D01*
X116066666Y-83540533D02*
X116066666Y-83445295D01*
X116066666Y-83445295D02*
X116019047Y-83350057D01*
X116019047Y-83350057D02*
X115971428Y-83302438D01*
X115971428Y-83302438D02*
X115876190Y-83254819D01*
X115876190Y-83254819D02*
X115638095Y-83254819D01*
X115638095Y-83254819D02*
X115495238Y-83302438D01*
X115066666Y-83731009D02*
X114733333Y-83731009D01*
X114590476Y-84254819D02*
X115066666Y-84254819D01*
X115066666Y-84254819D02*
X115066666Y-83254819D01*
X115066666Y-83254819D02*
X114590476Y-83254819D01*
X114304761Y-83254819D02*
X113733333Y-83254819D01*
X114019047Y-84254819D02*
X114019047Y-83254819D01*
D11*
%TO.C,RSW4*%
X123623600Y-82822400D02*
X120323600Y-82822400D01*
X123623600Y-82522400D02*
X123623600Y-82822400D01*
X123623600Y-80322400D02*
X123623600Y-80022400D01*
X123623600Y-80022400D02*
X120323600Y-80022400D01*
X120323600Y-82822400D02*
X120323600Y-82522400D01*
X120323600Y-80022400D02*
X120323600Y-80322400D01*
D10*
%TO.C,B+*%
X123600000Y-45000000D02*
X125600000Y-45000000D01*
X123600000Y-47000000D02*
X123600000Y-45000000D01*
X125600000Y-45000000D02*
X125600000Y-47000000D01*
X125600000Y-47000000D02*
X123600000Y-47000000D01*
%TO.C,B-*%
X111500000Y-44800000D02*
X113500000Y-44800000D01*
X111500000Y-46800000D02*
X111500000Y-44800000D01*
X113500000Y-44800000D02*
X113500000Y-46800000D01*
X113500000Y-46800000D02*
X111500000Y-46800000D01*
D11*
%TO.C,SW2*%
X33938000Y-39222000D02*
X31906000Y-39222000D01*
X33938000Y-39222000D02*
X33938000Y-41254000D01*
%TO.C,SW3*%
X51938000Y-27222000D02*
X49906000Y-27222000D01*
X51938000Y-27222000D02*
X51938000Y-29254000D01*
%TO.C,SW4*%
X69938000Y-20222000D02*
X67906000Y-20222000D01*
X69938000Y-20222000D02*
X69938000Y-22254000D01*
%TO.C,SW5*%
X87938000Y-25722000D02*
X85906000Y-25722000D01*
X87938000Y-25722000D02*
X87938000Y-27754000D01*
%TO.C,SW6*%
X105938000Y-28222000D02*
X103906000Y-28222000D01*
X105938000Y-28222000D02*
X105938000Y-30254000D01*
%TO.C,SW8*%
X33938000Y-56222000D02*
X31906000Y-56222000D01*
X33938000Y-56222000D02*
X33938000Y-58254000D01*
%TO.C,SW9*%
X51938000Y-44196000D02*
X49906000Y-44196000D01*
X51938000Y-44196000D02*
X51938000Y-46228000D01*
%TO.C,SW10*%
X69938000Y-37338000D02*
X67906000Y-37338000D01*
X69938000Y-37338000D02*
X69938000Y-39370000D01*
%TO.C,SW11*%
X87938000Y-42672000D02*
X85906000Y-42672000D01*
X87938000Y-42672000D02*
X87938000Y-44704000D01*
%TO.C,SW12*%
X105918000Y-45212000D02*
X103886000Y-45212000D01*
X105918000Y-45212000D02*
X105918000Y-47244000D01*
%TO.C,SW14*%
X33938000Y-73222000D02*
X31906000Y-73222000D01*
X33938000Y-73222000D02*
X33938000Y-75254000D01*
%TO.C,SW15*%
X51938000Y-61214000D02*
X49906000Y-61214000D01*
X51938000Y-61214000D02*
X51938000Y-63246000D01*
%TO.C,SW16*%
X69938000Y-54356000D02*
X67906000Y-54356000D01*
X69938000Y-54356000D02*
X69938000Y-56388000D01*
%TO.C,SW17*%
X87938000Y-59690000D02*
X85906000Y-59690000D01*
X87938000Y-59690000D02*
X87938000Y-61722000D01*
%TO.C,SW18*%
X105918000Y-62230000D02*
X103886000Y-62230000D01*
X105918000Y-62230000D02*
X105918000Y-64262000D01*
%TO.C,SW20*%
X99987798Y-97290202D02*
X101003798Y-95530439D01*
X99987798Y-97290202D02*
X101747561Y-98306202D01*
%TO.C,SW21*%
X82396700Y-91879338D02*
X82922620Y-89916577D01*
X82396700Y-91879338D02*
X84359461Y-92405259D01*
%TO.C,RSW2*%
X114023600Y-80022400D02*
X114023600Y-80322400D01*
X114023600Y-82822400D02*
X114023600Y-82522400D01*
X117323600Y-80022400D02*
X114023600Y-80022400D01*
X117323600Y-80322400D02*
X117323600Y-80022400D01*
X117323600Y-82522400D02*
X117323600Y-82822400D01*
X117323600Y-82822400D02*
X114023600Y-82822400D01*
%TD*%
M02*
